<svg width="48" height="48" viewBox="0 0 48 48" fill="none" xmlns="http://www.w3.org/2000/svg">
<path d="M8 22.5938C7.22335 22.5938 6.59375 23.2233 6.59375 24C6.59375 24.7767 7.22335 25.4062 8 25.4062V22.5938ZM40 25.4062C40.7766 25.4062 41.4062 24.7767 41.4062 24C41.4062 23.2233 40.7766 22.5938 40 22.5938V25.4062ZM8 10.5938C7.22335 10.5938 6.59375 11.2233 6.59375 12C6.59375 12.7767 7.22335 13.4062 8 13.4062V10.5938ZM40 13.4062C40.7766 13.4062 41.4062 12.7767 41.4062 12C41.4062 11.2233 40.7766 10.5938 40 10.5938V13.4062ZM8 34.5938C7.22335 34.5938 6.59375 35.2234 6.59375 36C6.59375 36.7766 7.22335 37.4062 8 37.4062V34.5938ZM40 37.4062C40.7766 37.4062 41.4062 36.7766 41.4062 36C41.4062 35.2234 40.7766 34.5938 40 34.5938V37.4062ZM8 25.4062H40V22.5938H8V25.4062ZM8 13.4062H40V10.5938H8V13.4062ZM8 37.4062H40V34.5938H8V37.4062Z" fill="white"/>
</svg>
