<svg width="686" height="68" viewBox="0 0 686 68" fill="none" xmlns="http://www.w3.org/2000/svg">
<path d="M0.6 67V0.849999H23.73V10.84H10.32V28.21H19.32V38.2H10.32V67H0.6ZM58.1803 67.72C55.4803 67.72 53.1553 67.09 51.2053 65.83C49.2853 64.57 47.8003 62.86 46.7503 60.7C45.7303 58.54 45.2203 56.11 45.2203 53.41V14.44C45.2203 11.71 45.7303 9.28 46.7503 7.15C47.8003 4.99 49.2853 3.28 51.2053 2.01999C53.1553 0.759996 55.4803 0.129997 58.1803 0.129997C60.8803 0.129997 63.1903 0.759996 65.1103 2.01999C67.0603 3.28 68.5453 4.99 69.5653 7.15C70.6153 9.31 71.1403 11.74 71.1403 14.44V53.41C71.1403 56.11 70.6153 58.54 69.5653 60.7C68.5453 62.86 67.0603 64.57 65.1103 65.83C63.1903 67.09 60.8803 67.72 58.1803 67.72ZM58.1803 58.27C59.3803 58.27 60.2203 57.775 60.7003 56.785C61.1803 55.765 61.4203 54.64 61.4203 53.41V14.44C61.4203 13.21 61.1653 12.1 60.6553 11.11C60.1453 10.09 59.3203 9.58 58.1803 9.58C57.0703 9.58 56.2453 10.09 55.7053 11.11C55.1953 12.1 54.9403 13.21 54.9403 14.44V53.41C54.9403 54.64 55.1953 55.765 55.7053 56.785C56.2153 57.775 57.0403 58.27 58.1803 58.27ZM95.9262 67V0.849999H105.646C111.466 0.849999 115.756 2.47 118.516 5.71C121.276 8.91999 122.656 13.66 122.656 19.93C122.656 23.65 121.996 26.875 120.676 29.605C119.386 32.305 117.811 34.285 115.951 35.545L122.566 67H112.846L107.356 39.1H105.646V67H95.9262ZM105.646 30.1C107.446 30.1 108.871 29.71 109.921 28.93C110.971 28.12 111.721 26.98 112.171 25.51C112.621 24.04 112.846 22.3 112.846 20.29C112.846 17.14 112.321 14.725 111.271 13.045C110.251 11.335 108.376 10.48 105.646 10.48V30.1ZM146.094 67V0.849999H158.424L163.734 35.14L164.184 38.65H164.364L164.814 35.14L170.124 0.849999H182.454V67H173.454V22.63H172.914L172.554 25.42L166.794 67H161.754L155.994 25.42L155.634 22.63H155.094V67H146.094ZM205.663 67L215.653 0.849999H227.533L237.523 67H228.073L226.273 53.5H216.913L215.113 67H205.663ZM218.263 43.24H224.923L222.133 21.01L221.863 17.5H221.323L221.053 21.01L218.263 43.24ZM292.555 67V0.849999H302.275V22.9V23.98H302.635L303.085 22.9L310.645 0.849999H320.635L311.725 22.63L321.805 67H311.815L305.335 36.85H305.065L302.275 43.6V67H292.555ZM349.795 67.72C348.295 67.72 347.035 67.24 346.015 66.28C344.995 65.32 344.23 64.105 343.72 62.635C343.21 61.135 342.955 59.62 342.955 58.09V17.77H352.045V56.29C352.045 57.22 352.21 57.895 352.54 58.315C352.9 58.705 353.455 58.9 354.205 58.9C354.865 58.9 355.42 58.675 355.87 58.225C356.35 57.745 356.785 57.19 357.175 56.56V17.77H366.265V67H357.175V62.86C356.095 63.88 354.88 64.945 353.53 66.055C352.18 67.165 350.935 67.72 349.795 67.72ZM388.729 67V17.77H397.819V21.91C399.289 20.56 400.624 19.42 401.824 18.49C403.054 17.53 404.239 17.05 405.379 17.05C406.999 17.05 408.304 17.605 409.294 18.715C410.284 19.825 411.019 21.1 411.499 22.54C412.789 21.22 414.124 19.975 415.504 18.805C416.914 17.635 418.339 17.05 419.779 17.05C421.279 17.05 422.539 17.53 423.559 18.49C424.579 19.45 425.344 20.665 425.854 22.135C426.364 23.605 426.619 25.12 426.619 26.68V67H418.069V28.48C418.069 27.52 417.829 26.845 417.349 26.455C416.899 26.065 416.329 25.87 415.639 25.87C414.949 25.87 414.289 26.14 413.659 26.68C413.029 27.19 412.549 27.7 412.219 28.21V67H403.669V28.48C403.669 27.52 403.429 26.845 402.949 26.455C402.499 26.065 401.929 25.87 401.239 25.87C400.549 25.87 399.889 26.14 399.259 26.68C398.629 27.19 398.149 27.7 397.819 28.21V67H388.729ZM456.157 67.72C454.057 67.72 452.242 66.655 450.712 64.525C449.182 62.395 448.417 59.14 448.417 54.76C448.417 50.53 449.317 47.125 451.117 44.545C452.947 41.965 455.677 39.73 459.307 37.84C460.447 37.24 461.407 36.7 462.187 36.22C462.967 35.74 463.447 35.29 463.627 34.87V29.47C463.627 28.24 463.477 27.19 463.177 26.32C462.907 25.42 462.217 24.97 461.107 24.97C460.087 24.97 459.397 25.45 459.037 26.41C458.677 27.34 458.497 28.51 458.497 29.92V32.26H449.407V30.19C449.407 27.49 449.932 25.165 450.982 23.215C452.062 21.235 453.517 19.72 455.347 18.67C457.207 17.59 459.307 17.05 461.647 17.05C463.897 17.05 465.847 17.575 467.497 18.625C469.147 19.645 470.422 21.07 471.322 22.9C472.252 24.7 472.717 26.77 472.717 29.11V58.45C472.717 60.64 472.777 62.35 472.897 63.58C473.017 64.78 473.167 65.92 473.347 67H464.437C464.047 66.52 463.807 65.815 463.717 64.885C463.657 63.955 463.627 63.34 463.627 63.04H462.997C462.247 64.42 461.287 65.545 460.117 66.415C458.977 67.285 457.657 67.72 456.157 67.72ZM459.847 58.81C460.897 58.81 461.782 58.45 462.502 57.73C463.252 57.01 463.627 56.23 463.627 55.39V43.69C461.437 44.62 459.832 46.03 458.812 47.92C457.822 49.78 457.327 51.88 457.327 54.22C457.327 55.24 457.522 56.26 457.912 57.28C458.302 58.3 458.947 58.81 459.847 58.81ZM495.832 67V17.77H504.922V21.91C506.002 20.86 507.217 19.795 508.567 18.715C509.917 17.605 511.162 17.05 512.302 17.05C513.802 17.05 515.062 17.53 516.082 18.49C517.102 19.45 517.867 20.665 518.377 22.135C518.887 23.605 519.142 25.12 519.142 26.68V67H510.052V28.48C510.052 27.52 509.887 26.845 509.557 26.455C509.227 26.065 508.672 25.87 507.892 25.87C507.232 25.87 506.662 26.11 506.182 26.59C505.732 27.04 505.312 27.58 504.922 28.21V67H495.832ZM552.81 67.63C549.18 67.63 546.33 66.415 544.26 63.985C542.19 61.525 541.155 58.42 541.155 54.67V30.01C541.155 26.26 542.19 23.17 544.26 20.74C546.33 18.28 549.18 17.05 552.81 17.05C556.41 17.05 559.245 18.28 561.315 20.74C563.415 23.17 564.465 26.26 564.465 30.01V54.67C564.465 58.42 563.415 61.525 561.315 63.985C559.245 66.415 556.41 67.63 552.81 67.63ZM552.81 59.71C553.98 59.71 554.79 59.245 555.24 58.315C555.69 57.355 555.915 56.14 555.915 54.67V30.01C555.915 28.51 555.69 27.295 555.24 26.365C554.79 25.435 553.98 24.97 552.81 24.97C551.64 24.97 550.83 25.435 550.38 26.365C549.93 27.295 549.705 28.51 549.705 30.01V54.67C549.705 56.17 549.93 57.385 550.38 58.315C550.83 59.245 551.64 59.71 552.81 59.71ZM592.935 67L584.925 17.77H593.745L596.805 46.3L597.075 51.25H597.795L598.065 46.3L601.125 17.77H609.945L601.935 67H592.935ZM642.072 67.63C638.442 67.63 635.592 66.415 633.522 63.985C631.452 61.525 630.417 58.42 630.417 54.67V30.01C630.417 26.26 631.452 23.17 633.522 20.74C635.592 18.28 638.442 17.05 642.072 17.05C645.672 17.05 648.507 18.28 650.577 20.74C652.677 23.17 653.727 26.26 653.727 30.01V54.67C653.727 58.42 652.677 61.525 650.577 63.985C648.507 66.415 645.672 67.63 642.072 67.63ZM642.072 59.71C643.242 59.71 644.052 59.245 644.502 58.315C644.952 57.355 645.177 56.14 645.177 54.67V30.01C645.177 28.51 644.952 27.295 644.502 26.365C644.052 25.435 643.242 24.97 642.072 24.97C640.902 24.97 640.092 25.435 639.642 26.365C639.192 27.295 638.967 28.51 638.967 30.01V54.67C638.967 56.17 639.192 57.385 639.642 58.315C640.092 59.245 640.902 59.71 642.072 59.71ZM675.852 67V57.01H685.302V67H675.852Z" fill="white"/>
</svg>
