<svg width="309" height="68" viewBox="0 0 309 68" fill="none" xmlns="http://www.w3.org/2000/svg">
<path d="M11.58 67.72C8.91 67.72 6.735 67.09 5.055 65.83C3.375 64.57 2.13 62.86 1.32 60.7C0.54 58.54 0.15 56.11 0.15 53.41V14.44C0.15 11.77 0.675 9.355 1.725 7.19499C2.775 5.035 4.275 3.325 6.225 2.065C8.175 0.774997 10.47 0.129997 13.11 0.129997C15.12 0.129997 16.92 0.504997 18.51 1.255C20.13 1.975 21.495 2.995 22.605 4.315C23.745 5.635 24.6 7.165 25.17 8.905C25.77 10.615 26.07 12.46 26.07 14.44V24.61H16.35V14.44C16.35 13.12 16.11 11.98 15.63 11.02C15.15 10.06 14.31 9.58 13.11 9.58C11.94 9.58 11.1 10.09 10.59 11.11C10.11 12.1 9.87 13.21 9.87 14.44V54.22C9.87 55.51 10.125 56.65 10.635 57.64C11.145 58.6 11.97 59.08 13.11 59.08C14.31 59.08 15.15 58.6 15.63 57.64C16.11 56.65 16.35 55.51 16.35 54.22V43.15H12.48V34.06H26.07V67H20.31L19.14 63.4C18.3 64.75 17.22 65.815 15.9 66.595C14.61 67.345 13.17 67.72 11.58 67.72ZM49.2703 67L59.2603 0.849999H71.1403L81.1303 67H71.6803L69.8803 53.5H60.5203L58.7203 67H49.2703ZM61.8703 43.24H68.5303L65.7403 21.01L65.4703 17.5H64.9303L64.6603 21.01L61.8703 43.24ZM115.097 67.72C112.427 67.72 110.207 67.285 108.437 66.415C106.667 65.515 105.272 64.225 104.252 62.545C103.232 60.865 102.497 58.84 102.047 56.47C101.627 54.1 101.417 51.43 101.417 48.46L110.957 47.56C110.957 49 111.002 50.395 111.092 51.745C111.212 53.065 111.407 54.265 111.677 55.345C111.977 56.395 112.397 57.235 112.937 57.865C113.507 58.495 114.227 58.81 115.097 58.81C116.537 58.81 117.557 58.15 118.157 56.83C118.757 55.48 119.057 53.86 119.057 51.97C119.057 50.08 118.562 48.115 117.572 46.075C116.582 44.035 115.397 42.1 114.017 40.27C111.677 37.15 109.622 34.255 107.852 31.585C106.112 28.915 104.747 26.29 103.757 23.71C102.797 21.13 102.317 18.43 102.317 15.61C102.317 13.39 102.602 11.35 103.172 9.48999C103.742 7.6 104.567 5.965 105.647 4.585C106.757 3.175 108.092 2.08 109.652 1.3C111.212 0.519998 112.997 0.129997 115.007 0.129997C117.497 0.129997 119.597 0.549997 121.307 1.39C123.047 2.23 124.442 3.43 125.492 4.99C126.572 6.55 127.352 8.41 127.832 10.57C128.342 12.7 128.597 15.07 128.597 17.68L119.057 18.58C119.057 17.47 118.997 16.36 118.877 15.25C118.787 14.11 118.607 13.075 118.337 12.145C118.067 11.215 117.677 10.465 117.167 9.895C116.657 9.325 115.997 9.04 115.187 9.04C113.927 9.04 113.057 9.58 112.577 10.66C112.097 11.71 111.857 13.21 111.857 15.16C111.857 17.68 112.532 20.11 113.882 22.45C115.232 24.79 117.047 27.52 119.327 30.64C122.057 34.33 124.277 37.72 125.987 40.81C127.727 43.9 128.597 47.32 128.597 51.07C128.597 53.44 128.342 55.645 127.832 57.685C127.322 59.695 126.512 61.45 125.402 62.95C124.322 64.45 122.927 65.62 121.217 66.46C119.537 67.3 117.497 67.72 115.097 67.72ZM158.287 67V10.84H149.107V0.849999H177.187V10.84H168.007V67H158.287ZM199.69 67V0.849999H209.41C215.23 0.849999 219.52 2.47 222.28 5.71C225.04 8.91999 226.42 13.66 226.42 19.93C226.42 23.65 225.76 26.875 224.44 29.605C223.15 32.305 221.575 34.285 219.715 35.545L226.33 67H216.61L211.12 39.1H209.41V67H199.69ZM209.41 30.1C211.21 30.1 212.635 29.71 213.685 28.93C214.735 28.12 215.485 26.98 215.935 25.51C216.385 24.04 216.61 22.3 216.61 20.29C216.61 17.14 216.085 14.725 215.035 13.045C214.015 11.335 212.14 10.48 209.41 10.48V30.1ZM262.368 67.72C259.668 67.72 257.343 67.09 255.393 65.83C253.473 64.57 251.988 62.86 250.938 60.7C249.918 58.54 249.408 56.11 249.408 53.41V14.44C249.408 11.71 249.918 9.28 250.938 7.15C251.988 4.99 253.473 3.28 255.393 2.01999C257.343 0.759996 259.668 0.129997 262.368 0.129997C265.068 0.129997 267.378 0.759996 269.298 2.01999C271.248 3.28 272.733 4.99 273.753 7.15C274.803 9.31 275.328 11.74 275.328 14.44V53.41C275.328 56.11 274.803 58.54 273.753 60.7C272.733 62.86 271.248 64.57 269.298 65.83C267.378 67.09 265.068 67.72 262.368 67.72ZM262.368 58.27C263.568 58.27 264.408 57.775 264.888 56.785C265.368 55.765 265.608 54.64 265.608 53.41V14.44C265.608 13.21 265.353 12.1 264.843 11.11C264.333 10.09 263.508 9.58 262.368 9.58C261.258 9.58 260.433 10.09 259.893 11.11C259.383 12.1 259.128 13.21 259.128 14.44V53.41C259.128 54.64 259.383 55.765 259.893 56.785C260.403 57.775 261.228 58.27 262.368 58.27ZM298.854 67V57.01H308.304V67H298.854Z" fill="white"/>
</svg>
