<svg width="430" height="1080" viewBox="0 0 430 1080" fill="none" xmlns="http://www.w3.org/2000/svg">
<rect width="430" height="1080" fill="white"/>
<rect x="24" y="111" width="377" height="734" fill="#ECECEC"/>
<rect y="875" width="430" height="57" fill="#BABABA"/>
<rect x="50" y="885" width="57" height="38" fill="#828282"/>
<rect x="188" y="885" width="57" height="38" fill="#828282"/>
<rect x="336" y="885" width="57" height="38" fill="#828282"/>
<rect x="94" y="28" width="241" height="64" fill="#B6B6B6"/>
<line x1="94.1283" y1="27.5167" x2="335.128" y2="91.5167" stroke="black"/>
<line y1="-0.5" x2="249.353" y2="-0.5" transform="matrix(-0.966501 0.256664 0.256664 0.966501 335 28)" stroke="black"/>
<rect x="27" y="136" width="42" height="41" fill="#D9D9D9"/>
<rect x="193" y="136" width="42" height="41" fill="#D9D9D9"/>
<rect x="23" y="595" width="42" height="250" fill="#D9D9D9"/>
<rect x="27" y="190" width="42" height="41" fill="#D9D9D9"/>
<rect x="192" y="231" width="42" height="41" fill="#D9D9D9"/>
<rect x="27" y="298" width="42" height="41" fill="#D9D9D9"/>
<rect x="276" y="437" width="124" height="169" fill="#D9D9D9"/>
<rect x="102" y="136" width="42" height="41" fill="#D9D9D9"/>
<rect x="193" y="362" width="42" height="41" fill="#D9D9D9"/>
<rect x="196" y="437" width="42" height="41" fill="#D9D9D9"/>
<rect x="52" y="502" width="42" height="41" fill="#D9D9D9"/>
<rect x="117" y="390" width="42" height="41" fill="#616161"/>
<rect x="79" y="259" width="42" height="41" fill="#D9D9D9"/>
<rect x="248" y="190" width="42" height="41" fill="#D9D9D9"/>
<rect x="146" y="300" width="42" height="41" fill="#D9D9D9"/>
<rect x="248" y="298" width="42" height="41" fill="#D9D9D9"/>
<rect x="137" y="190" width="41" height="41" fill="#D9D9D9"/>
<rect x="203" y="779" width="42" height="41" fill="#D9D9D9"/>
<rect x="336" y="136" width="41" height="41" fill="#D9D9D9"/>
<rect x="187" y="508" width="41" height="41" fill="#D9D9D9"/>
<rect x="38" y="397" width="41" height="41" fill="#D9D9D9"/>
<rect x="117" y="600" width="41" height="41" fill="#D9D9D9"/>
<rect x="70" y="606" width="16" height="16" fill="#D9D9D9"/>
<rect x="70" y="633" width="16" height="16" fill="#D9D9D9"/>
<rect x="70" y="656" width="16" height="16" fill="#D9D9D9"/>
<rect x="70" y="683" width="16" height="16" fill="#D9D9D9"/>
<rect x="70" y="715" width="16" height="16" fill="#D9D9D9"/>
<rect x="70" y="742" width="16" height="16" fill="#D9D9D9"/>
<rect x="70" y="765" width="16" height="16" fill="#D9D9D9"/>
<rect x="70" y="795" width="16" height="16" fill="#D9D9D9"/>
<rect x="70" y="827" width="16" height="16" fill="#D9D9D9"/>
<rect x="187" y="600" width="41" height="41" fill="#D9D9D9"/>
<rect x="286" y="635" width="41" height="41" fill="#D9D9D9"/>
<rect x="109" y="686" width="41" height="41" fill="#D9D9D9"/>
<rect x="343" y="691" width="41" height="41" fill="#D9D9D9"/>
<rect x="167" y="720" width="41" height="41" fill="#D9D9D9"/>
<rect x="204" y="662" width="41" height="41" fill="#D9D9D9"/>
<rect x="262" y="716" width="41" height="41" fill="#D9D9D9"/>
<rect x="105" y="780" width="41" height="41" fill="#D9D9D9"/>
<rect x="314" y="770" width="42" height="41" fill="#D9D9D9"/>
<rect x="116" y="481" width="41" height="41" fill="#D9D9D9"/>
<rect x="294" y="231" width="41" height="41" fill="#D9D9D9"/>
<rect x="290" y="367" width="42" height="41" fill="#D9D9D9"/>
<rect x="344" y="298" width="41" height="41" fill="#D9D9D9"/>
<rect x="123" y="983" width="184" height="34" fill="#AAA8A8"/>
<path d="M165.312 1004.13L164.367 1008.04C163.88 1008.03 163.322 1008.01 162.691 1008C162.061 1008 161.395 1008 160.693 1008C159.992 1007.99 159.268 1007.98 158.523 1007.98C157.779 1007.98 157.048 1007.99 156.332 1008C155.63 1008 154.957 1008 154.312 1008C153.682 1008.01 153.117 1008.03 152.615 1008.04V1007.05C153.074 1007.04 153.432 1007.01 153.689 1006.97C153.962 1006.93 154.169 1006.83 154.312 1006.69C154.456 1006.55 154.542 1006.34 154.57 1006.07C154.613 1005.79 154.635 1005.42 154.635 1004.95V994.744C154.635 994.3 154.613 993.956 154.57 993.713C154.542 993.455 154.456 993.262 154.312 993.133C154.184 993.004 153.983 992.925 153.711 992.896C153.439 992.854 153.074 992.832 152.615 992.832V991.779C152.93 991.808 153.374 991.829 153.947 991.844C154.535 991.844 155.143 991.844 155.773 991.844C156.418 991.844 157.041 991.844 157.643 991.844C158.244 991.829 158.717 991.808 159.061 991.779V992.832C158.602 992.832 158.237 992.854 157.965 992.896C157.693 992.925 157.485 993.004 157.342 993.133C157.199 993.262 157.105 993.455 157.062 993.713C157.02 993.956 156.998 994.293 156.998 994.723V1004.93C156.998 1005.39 157.041 1005.75 157.127 1006.02C157.213 1006.28 157.385 1006.47 157.643 1006.6C157.9 1006.73 158.258 1006.82 158.717 1006.86C159.189 1006.89 159.812 1006.9 160.586 1006.9C161.145 1006.9 161.603 1006.88 161.961 1006.82C162.333 1006.75 162.641 1006.62 162.885 1006.43C163.143 1006.23 163.35 1005.95 163.508 1005.59C163.68 1005.22 163.852 1004.73 164.023 1004.13H165.312ZM177.15 1002.78C177.15 1003.54 177.007 1004.26 176.721 1004.95C176.449 1005.62 176.062 1006.22 175.561 1006.73C175.074 1007.23 174.501 1007.63 173.842 1007.94C173.183 1008.24 172.481 1008.39 171.736 1008.39C170.963 1008.39 170.232 1008.26 169.545 1008C168.857 1007.73 168.256 1007.36 167.74 1006.88C167.239 1006.4 166.838 1005.82 166.537 1005.14C166.236 1004.47 166.086 1003.72 166.086 1002.89C166.086 1002.14 166.215 1001.43 166.473 1000.76C166.745 1000.07 167.117 999.471 167.59 998.955C168.062 998.439 168.621 998.031 169.266 997.73C169.924 997.43 170.641 997.279 171.414 997.279C172.23 997.279 172.99 997.415 173.691 997.688C174.393 997.945 175.002 998.318 175.518 998.805C176.033 999.277 176.434 999.857 176.721 1000.54C177.007 1001.22 177.15 1001.96 177.15 1002.78ZM174.594 1003.04C174.594 1002.54 174.536 1002.01 174.422 1001.45C174.307 1000.89 174.121 1000.38 173.863 999.922C173.62 999.449 173.305 999.062 172.918 998.762C172.531 998.461 172.066 998.311 171.521 998.311C171.006 998.311 170.562 998.447 170.189 998.719C169.817 998.991 169.516 999.335 169.287 999.75C169.058 1000.17 168.886 1000.63 168.771 1001.15C168.671 1001.66 168.621 1002.16 168.621 1002.65C168.621 1003.11 168.678 1003.61 168.793 1004.15C168.908 1004.7 169.087 1005.21 169.33 1005.68C169.574 1006.15 169.889 1006.55 170.275 1006.86C170.676 1007.18 171.149 1007.33 171.693 1007.33C172.209 1007.33 172.646 1007.2 173.004 1006.93C173.376 1006.65 173.677 1006.31 173.906 1005.89C174.15 1005.46 174.322 1005 174.422 1004.5C174.536 1004 174.594 1003.51 174.594 1003.04ZM181.963 999.191C182.192 998.862 182.393 998.597 182.564 998.396C182.736 998.182 182.915 997.995 183.102 997.838C183.302 997.68 183.531 997.551 183.789 997.451C184.061 997.337 184.326 997.279 184.584 997.279C184.756 997.279 184.935 997.308 185.121 997.365C185.322 997.423 185.501 997.508 185.658 997.623C185.816 997.738 185.945 997.888 186.045 998.074C186.16 998.246 186.217 998.454 186.217 998.697C186.217 999.055 186.074 999.363 185.787 999.621C185.501 999.879 185.178 1000.01 184.82 1000.01C184.562 1000.01 184.355 999.979 184.197 999.922C184.04 999.865 183.904 999.8 183.789 999.729C183.689 999.657 183.603 999.592 183.531 999.535C183.46 999.478 183.381 999.449 183.295 999.449C183.18 999.449 183.044 999.492 182.887 999.578C182.743 999.664 182.6 999.786 182.457 999.943C182.328 1000.09 182.214 1000.27 182.113 1000.5C182.013 1000.72 181.963 1000.95 181.963 1001.21V1005.62C181.963 1005.94 181.977 1006.2 182.006 1006.39C182.049 1006.57 182.149 1006.72 182.307 1006.82C182.464 1006.92 182.701 1006.98 183.016 1007.01C183.331 1007.03 183.76 1007.03 184.305 1007.03V1008.09C183.932 1008.07 183.467 1008.06 182.908 1008.04C182.35 1008.03 181.77 1008.02 181.168 1008.02C180.581 1008.02 180.001 1008.02 179.428 1008.02C178.869 1008.04 178.396 1008.06 178.01 1008.09V1007.03C178.411 1007.03 178.726 1007.03 178.955 1007.01C179.184 1006.98 179.356 1006.93 179.471 1006.84C179.585 1006.75 179.65 1006.62 179.664 1006.43C179.693 1006.23 179.707 1005.96 179.707 1005.62V1000.7C179.707 1000.35 179.7 1000.08 179.686 999.879C179.671 999.678 179.621 999.528 179.535 999.428C179.449 999.313 179.32 999.249 179.148 999.234C178.991 999.206 178.762 999.191 178.461 999.191V998.332C178.977 998.26 179.428 998.153 179.814 998.01C180.201 997.852 180.566 997.616 180.91 997.301H182.092C182.077 997.487 182.063 997.673 182.049 997.859C182.035 998.031 182.02 998.21 182.006 998.396C181.992 998.583 181.977 998.747 181.963 998.891C181.963 999.02 181.963 999.12 181.963 999.191ZM195.025 1001.81H189.031V1002.22C189.031 1002.35 189.031 1002.49 189.031 1002.65C189.031 1002.81 189.038 1002.99 189.053 1003.19C189.081 1003.7 189.167 1004.18 189.311 1004.61C189.468 1005.04 189.669 1005.41 189.912 1005.72C190.156 1006.04 190.442 1006.29 190.771 1006.47C191.115 1006.65 191.495 1006.73 191.91 1006.73C192.483 1006.73 192.999 1006.59 193.457 1006.3C193.93 1006 194.395 1005.58 194.854 1005.04L195.82 1005.64C195.362 1006.44 194.768 1007.1 194.037 1007.61C193.307 1008.13 192.462 1008.39 191.502 1008.39C190.829 1008.39 190.206 1008.25 189.633 1007.98C189.06 1007.71 188.566 1007.33 188.15 1006.86C187.735 1006.39 187.406 1005.84 187.162 1005.21C186.933 1004.58 186.818 1003.9 186.818 1003.19C186.818 1002.27 186.933 1001.45 187.162 1000.72C187.406 999.986 187.742 999.37 188.172 998.869C188.602 998.354 189.103 997.96 189.676 997.688C190.263 997.415 190.9 997.279 191.588 997.279C192.061 997.279 192.533 997.358 193.006 997.516C193.493 997.673 193.923 997.91 194.295 998.225C194.667 998.525 194.975 998.912 195.219 999.385C195.462 999.857 195.584 1000.41 195.584 1001.04C195.584 1001.33 195.562 1001.53 195.52 1001.64C195.491 1001.76 195.326 1001.81 195.025 1001.81ZM189.203 1000.65H192.941C193.113 1000.65 193.206 1000.64 193.221 1000.61C193.249 1000.58 193.264 1000.49 193.264 1000.33C193.264 1000.12 193.221 999.9 193.135 999.686C193.063 999.456 192.949 999.249 192.791 999.062C192.633 998.876 192.44 998.726 192.211 998.611C191.996 998.497 191.753 998.439 191.48 998.439C190.836 998.439 190.32 998.647 189.934 999.062C189.561 999.478 189.318 1000.01 189.203 1000.65ZM200.311 997.301C200.282 997.516 200.253 997.702 200.225 997.859C200.21 998.003 200.196 998.167 200.182 998.354C200.182 998.654 200.182 998.862 200.182 998.977C200.411 998.733 200.661 998.504 200.934 998.289C201.22 998.06 201.485 997.881 201.729 997.752C201.972 997.623 202.258 997.516 202.588 997.43C202.917 997.329 203.297 997.279 203.727 997.279C204.042 997.279 204.335 997.322 204.607 997.408C204.894 997.48 205.145 997.587 205.359 997.73C205.589 997.859 205.782 998.038 205.939 998.268C206.097 998.497 206.212 998.74 206.283 998.998C206.656 998.626 207.135 998.246 207.723 997.859C208.31 997.473 209.04 997.279 209.914 997.279C210.43 997.279 210.867 997.38 211.225 997.58C211.597 997.766 211.898 998.017 212.127 998.332C212.356 998.647 212.521 999.012 212.621 999.428C212.721 999.829 212.771 1000.24 212.771 1000.67V1005.68C212.771 1005.97 212.786 1006.2 212.814 1006.39C212.843 1006.56 212.908 1006.7 213.008 1006.8C213.108 1006.9 213.251 1006.96 213.438 1006.99C213.638 1007.02 213.903 1007.03 214.232 1007.03V1008.06C213.889 1008.05 213.495 1008.04 213.051 1008.02C212.607 1008.02 212.148 1008.02 211.676 1008.02C211.203 1008.02 210.738 1008.03 210.279 1008.04C209.835 1008.06 209.434 1008.07 209.076 1008.09V1007.03C209.406 1007.03 209.663 1007.02 209.85 1006.99C210.05 1006.96 210.193 1006.9 210.279 1006.8C210.38 1006.7 210.444 1006.56 210.473 1006.39C210.501 1006.2 210.516 1005.97 210.516 1005.68V1001.49C210.516 1001.16 210.494 1000.84 210.451 1000.52C210.423 1000.21 210.351 999.929 210.236 999.686C210.136 999.442 209.979 999.249 209.764 999.105C209.563 998.962 209.291 998.891 208.947 998.891C208.761 998.891 208.553 998.934 208.324 999.02C208.095 999.105 207.866 999.213 207.637 999.342C207.408 999.456 207.186 999.585 206.971 999.729C206.77 999.872 206.605 1000 206.477 1000.12V1005.68C206.477 1005.97 206.491 1006.2 206.52 1006.39C206.548 1006.56 206.613 1006.7 206.713 1006.8C206.827 1006.9 206.985 1006.96 207.186 1006.99C207.4 1007.02 207.68 1007.03 208.023 1007.03V1008.06C207.665 1008.05 207.257 1008.04 206.799 1008.02C206.34 1008.02 205.868 1008.02 205.381 1008.02C204.908 1008.02 204.443 1008.03 203.984 1008.04C203.526 1008.06 203.118 1008.07 202.76 1008.09V1007.03C203.089 1007.03 203.347 1007.02 203.533 1006.99C203.734 1006.95 203.884 1006.88 203.984 1006.8C204.085 1006.7 204.149 1006.56 204.178 1006.39C204.206 1006.2 204.221 1005.97 204.221 1005.68V1001.49C204.221 1001.15 204.199 1000.82 204.156 1000.52C204.128 1000.21 204.056 999.929 203.941 999.686C203.841 999.442 203.684 999.249 203.469 999.105C203.268 998.962 202.996 998.891 202.652 998.891C202.509 998.891 202.33 998.934 202.115 999.02C201.9 999.105 201.671 999.213 201.428 999.342C201.199 999.471 200.969 999.614 200.74 999.771C200.511 999.929 200.325 1000.08 200.182 1000.22V1005.68C200.182 1005.97 200.196 1006.2 200.225 1006.39C200.253 1006.56 200.318 1006.7 200.418 1006.8C200.533 1006.9 200.69 1006.96 200.891 1006.99C201.091 1007.02 201.356 1007.03 201.686 1007.03V1008.06C201.313 1008.05 200.898 1008.04 200.439 1008.02C199.995 1008.02 199.53 1008.02 199.043 1008.02C198.57 1008.02 198.098 1008.03 197.625 1008.04C197.167 1008.06 196.751 1008.07 196.379 1008.09V1007.03C196.737 1007.03 197.016 1007.02 197.217 1006.99C197.417 1006.95 197.568 1006.88 197.668 1006.8C197.783 1006.7 197.854 1006.56 197.883 1006.39C197.911 1006.2 197.926 1005.97 197.926 1005.68V1000.7C197.926 1000.35 197.919 1000.08 197.904 999.879C197.89 999.678 197.84 999.528 197.754 999.428C197.668 999.313 197.539 999.249 197.367 999.234C197.21 999.206 196.98 999.191 196.68 999.191V998.332C197.195 998.26 197.646 998.153 198.033 998.01C198.42 997.852 198.785 997.616 199.129 997.301H200.311ZM225.361 999.9V1005.85C225.361 1006.14 225.368 1006.36 225.383 1006.52C225.411 1006.68 225.476 1006.79 225.576 1006.86C225.676 1006.93 225.827 1006.98 226.027 1007.01C226.228 1007.03 226.507 1007.03 226.865 1007.03V1008.04C226.364 1008.04 225.906 1008.04 225.49 1008.02C225.075 1008.01 224.674 1008 224.287 1008C223.872 1008 223.442 1008 222.998 1008C222.568 1008.01 222.103 1008.03 221.602 1008.04V1007.03C221.96 1007.03 222.239 1007.03 222.439 1007.01C222.64 1007 222.79 1006.95 222.891 1006.88C222.991 1006.8 223.048 1006.68 223.062 1006.52C223.091 1006.36 223.105 1006.14 223.105 1005.85V1000.7C223.105 1000.35 223.098 1000.08 223.084 999.879C223.07 999.678 223.02 999.528 222.934 999.428C222.848 999.313 222.719 999.249 222.547 999.234C222.389 999.206 222.16 999.191 221.859 999.191V998.332C222.375 998.26 222.826 998.153 223.213 998.01C223.6 997.852 223.965 997.616 224.309 997.301H225.49C225.433 997.73 225.397 998.189 225.383 998.676C225.368 999.148 225.361 999.557 225.361 999.9ZM224.158 991.607C224.588 991.607 224.946 991.758 225.232 992.059C225.533 992.345 225.684 992.674 225.684 993.047C225.684 993.405 225.533 993.727 225.232 994.014C224.946 994.3 224.588 994.443 224.158 994.443C223.943 994.443 223.743 994.408 223.557 994.336C223.385 994.25 223.227 994.143 223.084 994.014C222.941 993.885 222.826 993.734 222.74 993.562C222.669 993.391 222.633 993.219 222.633 993.047C222.633 992.674 222.783 992.345 223.084 992.059C223.385 991.758 223.743 991.607 224.158 991.607ZM231.463 997.301C231.42 997.73 231.391 998.01 231.377 998.139C231.377 998.253 231.37 998.447 231.355 998.719C231.556 998.533 231.757 998.361 231.957 998.203C232.172 998.031 232.394 997.881 232.623 997.752C232.867 997.609 233.146 997.494 233.461 997.408C233.776 997.322 234.12 997.279 234.492 997.279C235.151 997.279 235.745 997.43 236.275 997.73C236.82 998.017 237.285 998.404 237.672 998.891C238.059 999.363 238.352 999.9 238.553 1000.5C238.768 1001.1 238.875 1001.71 238.875 1002.33C238.875 1003.13 238.732 1003.9 238.445 1004.63C238.173 1005.36 237.779 1006 237.264 1006.56C236.762 1007.12 236.154 1007.56 235.438 1007.89C234.721 1008.22 233.926 1008.39 233.053 1008.39C232.867 1008.39 232.68 1008.37 232.494 1008.34C232.308 1008.32 232.129 1008.27 231.957 1008.21C231.799 1008.17 231.663 1008.12 231.549 1008.06C231.434 1008.02 231.37 1007.99 231.355 1007.98V1010.88C231.355 1011.17 231.37 1011.39 231.398 1011.57C231.441 1011.74 231.527 1011.87 231.656 1011.95C231.799 1012.05 232.007 1012.12 232.279 1012.15C232.551 1012.18 232.931 1012.19 233.418 1012.19V1013.26C233.117 1013.25 232.68 1013.24 232.107 1013.22C231.535 1013.21 230.94 1013.2 230.324 1013.2C229.708 1013.2 229.114 1013.21 228.541 1013.22C227.982 1013.24 227.56 1013.25 227.273 1013.26V1012.19C227.689 1012.19 228.018 1012.18 228.262 1012.15C228.505 1012.12 228.684 1012.05 228.799 1011.95C228.928 1011.87 229.007 1011.73 229.035 1011.54C229.064 1011.37 229.078 1011.13 229.078 1010.81V1000.7C229.078 1000.35 229.071 1000.08 229.057 999.879C229.042 999.678 228.992 999.528 228.906 999.428C228.82 999.313 228.691 999.249 228.52 999.234C228.362 999.206 228.133 999.191 227.832 999.191V998.332C228.348 998.26 228.799 998.153 229.186 998.01C229.572 997.852 229.938 997.616 230.281 997.301H231.463ZM231.355 1005.92C231.427 1006.04 231.52 1006.19 231.635 1006.35C231.749 1006.5 231.893 1006.65 232.064 1006.8C232.236 1006.93 232.437 1007.03 232.666 1007.12C232.91 1007.21 233.196 1007.25 233.525 1007.25C234.027 1007.25 234.471 1007.13 234.857 1006.88C235.244 1006.64 235.566 1006.32 235.824 1005.94C236.082 1005.55 236.275 1005.12 236.404 1004.65C236.548 1004.16 236.619 1003.68 236.619 1003.21C236.619 1002.64 236.562 1002.09 236.447 1001.58C236.347 1001.05 236.175 1000.59 235.932 1000.2C235.688 999.8 235.373 999.485 234.986 999.256C234.614 999.027 234.156 998.912 233.611 998.912C233.439 998.912 233.239 998.955 233.01 999.041C232.781 999.113 232.551 999.206 232.322 999.32C232.107 999.435 231.907 999.557 231.721 999.686C231.549 999.8 231.427 999.9 231.355 999.986V1005.92ZM240.1 1004.56H241.367C241.424 1004.92 241.503 1005.26 241.604 1005.59C241.718 1005.92 241.861 1006.21 242.033 1006.45C242.205 1006.7 242.413 1006.9 242.656 1007.05C242.914 1007.2 243.215 1007.27 243.559 1007.27C244.174 1007.27 244.59 1007.13 244.805 1006.84C245.034 1006.55 245.148 1006.22 245.148 1005.85C245.148 1005.55 245.098 1005.29 244.998 1005.08C244.898 1004.86 244.755 1004.68 244.568 1004.52C244.382 1004.35 244.16 1004.2 243.902 1004.07C243.659 1003.93 243.387 1003.77 243.086 1003.6C242.27 1003.18 241.596 1002.72 241.066 1002.22C240.551 1001.72 240.293 1001.1 240.293 1000.35C240.293 999.965 240.372 999.592 240.529 999.234C240.701 998.862 240.945 998.533 241.26 998.246C241.575 997.96 241.962 997.73 242.42 997.559C242.878 997.372 243.394 997.279 243.967 997.279C244.425 997.279 244.876 997.337 245.32 997.451C245.779 997.566 246.273 997.766 246.803 998.053L246.953 1000.67H245.75C245.635 999.843 245.413 999.263 245.084 998.934C244.755 998.604 244.318 998.439 243.773 998.439C243.358 998.439 243 998.554 242.699 998.783C242.398 998.998 242.248 999.313 242.248 999.729C242.248 1000.03 242.32 1000.29 242.463 1000.5C242.606 1000.72 242.792 1000.92 243.021 1001.1C243.265 1001.28 243.537 1001.44 243.838 1001.6C244.139 1001.76 244.454 1001.91 244.783 1002.07C245.098 1002.21 245.413 1002.36 245.729 1002.52C246.044 1002.68 246.323 1002.87 246.566 1003.1C246.824 1003.33 247.032 1003.61 247.189 1003.94C247.347 1004.25 247.426 1004.65 247.426 1005.12C247.426 1005.52 247.347 1005.92 247.189 1006.32C247.032 1006.71 246.788 1007.06 246.459 1007.38C246.13 1007.68 245.714 1007.92 245.213 1008.11C244.712 1008.29 244.11 1008.39 243.408 1008.39C242.893 1008.39 242.377 1008.32 241.861 1008.17C241.346 1008.03 240.866 1007.81 240.422 1007.53L240.1 1004.56ZM256.213 1008.04V1006.73C255.783 1007.21 255.268 1007.59 254.666 1007.89C254.064 1008.19 253.334 1008.36 252.475 1008.39C252.16 1008.39 251.837 1008.33 251.508 1008.21C251.193 1008.11 250.906 1007.95 250.648 1007.72C250.391 1007.48 250.183 1007.18 250.025 1006.82C249.868 1006.46 249.789 1006.03 249.789 1005.53V999.729C249.789 999.499 249.775 999.32 249.746 999.191C249.732 999.048 249.674 998.941 249.574 998.869C249.488 998.783 249.352 998.733 249.166 998.719C248.994 998.69 248.751 998.661 248.436 998.633V997.795C248.923 997.781 249.488 997.759 250.133 997.73C250.777 997.688 251.443 997.637 252.131 997.58C252.102 997.91 252.081 998.282 252.066 998.697C252.052 999.113 252.045 999.442 252.045 999.686V1004.33C252.045 1004.87 252.066 1005.31 252.109 1005.64C252.167 1005.95 252.245 1006.2 252.346 1006.37C252.46 1006.54 252.596 1006.65 252.754 1006.71C252.926 1006.77 253.133 1006.8 253.377 1006.8C253.792 1006.8 254.272 1006.68 254.816 1006.43C255.361 1006.19 255.833 1005.87 256.234 1005.46V999.729C256.234 999.499 256.213 999.32 256.17 999.191C256.127 999.062 256.048 998.962 255.934 998.891C255.819 998.805 255.661 998.747 255.461 998.719C255.26 998.69 254.995 998.661 254.666 998.633V997.795C255.153 997.781 255.755 997.759 256.471 997.73C257.187 997.688 257.889 997.637 258.576 997.58C258.548 997.91 258.526 998.282 258.512 998.697C258.497 999.113 258.49 999.442 258.49 999.686V1006.15C258.49 1006.34 258.497 1006.49 258.512 1006.6C258.54 1006.7 258.598 1006.78 258.684 1006.82C258.784 1006.86 258.934 1006.88 259.135 1006.88C259.335 1006.87 259.615 1006.85 259.973 1006.82V1007.68C259.801 1007.72 259.593 1007.77 259.35 1007.83C259.106 1007.87 258.848 1007.93 258.576 1008C258.318 1008.06 258.061 1008.12 257.803 1008.19C257.545 1008.26 257.316 1008.34 257.115 1008.41C256.872 1008.51 256.657 1008.49 256.471 1008.37C256.299 1008.24 256.213 1008.13 256.213 1008.04ZM264.592 997.301C264.563 997.516 264.535 997.702 264.506 997.859C264.492 998.003 264.477 998.167 264.463 998.354C264.463 998.654 264.463 998.862 264.463 998.977C264.692 998.733 264.943 998.504 265.215 998.289C265.501 998.06 265.766 997.881 266.01 997.752C266.253 997.623 266.54 997.516 266.869 997.43C267.199 997.329 267.578 997.279 268.008 997.279C268.323 997.279 268.617 997.322 268.889 997.408C269.175 997.48 269.426 997.587 269.641 997.73C269.87 997.859 270.063 998.038 270.221 998.268C270.378 998.497 270.493 998.74 270.564 998.998C270.937 998.626 271.417 998.246 272.004 997.859C272.591 997.473 273.322 997.279 274.195 997.279C274.711 997.279 275.148 997.38 275.506 997.58C275.878 997.766 276.179 998.017 276.408 998.332C276.637 998.647 276.802 999.012 276.902 999.428C277.003 999.829 277.053 1000.24 277.053 1000.67V1005.68C277.053 1005.97 277.067 1006.2 277.096 1006.39C277.124 1006.56 277.189 1006.7 277.289 1006.8C277.389 1006.9 277.533 1006.96 277.719 1006.99C277.919 1007.02 278.184 1007.03 278.514 1007.03V1008.06C278.17 1008.05 277.776 1008.04 277.332 1008.02C276.888 1008.02 276.43 1008.02 275.957 1008.02C275.484 1008.02 275.019 1008.03 274.561 1008.04C274.117 1008.06 273.715 1008.07 273.357 1008.09V1007.03C273.687 1007.03 273.945 1007.02 274.131 1006.99C274.331 1006.96 274.475 1006.9 274.561 1006.8C274.661 1006.7 274.725 1006.56 274.754 1006.39C274.783 1006.2 274.797 1005.97 274.797 1005.68V1001.49C274.797 1001.16 274.775 1000.84 274.732 1000.52C274.704 1000.21 274.632 999.929 274.518 999.686C274.417 999.442 274.26 999.249 274.045 999.105C273.844 998.962 273.572 998.891 273.229 998.891C273.042 998.891 272.835 998.934 272.605 999.02C272.376 999.105 272.147 999.213 271.918 999.342C271.689 999.456 271.467 999.585 271.252 999.729C271.051 999.872 270.887 1000 270.758 1000.12V1005.68C270.758 1005.97 270.772 1006.2 270.801 1006.39C270.829 1006.56 270.894 1006.7 270.994 1006.8C271.109 1006.9 271.266 1006.96 271.467 1006.99C271.682 1007.02 271.961 1007.03 272.305 1007.03V1008.06C271.947 1008.05 271.538 1008.04 271.08 1008.02C270.622 1008.02 270.149 1008.02 269.662 1008.02C269.189 1008.02 268.724 1008.03 268.266 1008.04C267.807 1008.06 267.399 1008.07 267.041 1008.09V1007.03C267.37 1007.03 267.628 1007.02 267.814 1006.99C268.015 1006.95 268.165 1006.88 268.266 1006.8C268.366 1006.7 268.43 1006.56 268.459 1006.39C268.488 1006.2 268.502 1005.97 268.502 1005.68V1001.49C268.502 1001.15 268.48 1000.82 268.438 1000.52C268.409 1000.21 268.337 999.929 268.223 999.686C268.122 999.442 267.965 999.249 267.75 999.105C267.549 998.962 267.277 998.891 266.934 998.891C266.79 998.891 266.611 998.934 266.396 999.02C266.182 999.105 265.952 999.213 265.709 999.342C265.48 999.471 265.251 999.614 265.021 999.771C264.792 999.929 264.606 1000.08 264.463 1000.22V1005.68C264.463 1005.97 264.477 1006.2 264.506 1006.39C264.535 1006.56 264.599 1006.7 264.699 1006.8C264.814 1006.9 264.971 1006.96 265.172 1006.99C265.372 1007.02 265.637 1007.03 265.967 1007.03V1008.06C265.594 1008.05 265.179 1008.04 264.721 1008.02C264.277 1008.02 263.811 1008.02 263.324 1008.02C262.852 1008.02 262.379 1008.03 261.906 1008.04C261.448 1008.06 261.033 1008.07 260.66 1008.09V1007.03C261.018 1007.03 261.298 1007.02 261.498 1006.99C261.699 1006.95 261.849 1006.88 261.949 1006.8C262.064 1006.7 262.135 1006.56 262.164 1006.39C262.193 1006.2 262.207 1005.97 262.207 1005.68V1000.7C262.207 1000.35 262.2 1000.08 262.186 999.879C262.171 999.678 262.121 999.528 262.035 999.428C261.949 999.313 261.82 999.249 261.648 999.234C261.491 999.206 261.262 999.191 260.961 999.191V998.332C261.477 998.26 261.928 998.153 262.314 998.01C262.701 997.852 263.066 997.616 263.41 997.301H264.592Z" fill="black"/>
</svg>
