<svg width="430" height="932" viewBox="0 0 430 932" fill="none" xmlns="http://www.w3.org/2000/svg">
<rect width="430" height="932" fill="white"/>
<rect x="95" y="434" width="241" height="64" fill="#D9D9D9"/>
<line x1="95.1283" y1="433.517" x2="336.128" y2="497.517" stroke="black"/>
<line y1="-0.5" x2="249.353" y2="-0.5" transform="matrix(-0.966501 0.256664 0.256664 0.966501 336 434)" stroke="black"/>
<path d="M122.161 543.133L121.216 547.043C120.729 547.029 120.17 547.014 119.54 547C118.91 547 118.244 547 117.542 547C116.84 546.986 116.117 546.979 115.372 546.979C114.627 546.979 113.897 546.986 113.181 547C112.479 547 111.806 547 111.161 547C110.531 547.014 109.965 547.029 109.464 547.043V546.055C109.922 546.04 110.28 546.012 110.538 545.969C110.81 545.926 111.018 545.833 111.161 545.689C111.304 545.546 111.39 545.339 111.419 545.066C111.462 544.794 111.483 544.422 111.483 543.949V533.744C111.483 533.3 111.462 532.956 111.419 532.713C111.39 532.455 111.304 532.262 111.161 532.133C111.032 532.004 110.832 531.925 110.56 531.896C110.287 531.854 109.922 531.832 109.464 531.832V530.779C109.779 530.808 110.223 530.829 110.796 530.844C111.383 530.844 111.992 530.844 112.622 530.844C113.267 530.844 113.89 530.844 114.491 530.844C115.093 530.829 115.565 530.808 115.909 530.779V531.832C115.451 531.832 115.086 531.854 114.813 531.896C114.541 531.925 114.334 532.004 114.19 532.133C114.047 532.262 113.954 532.455 113.911 532.713C113.868 532.956 113.847 533.293 113.847 533.723V543.928C113.847 544.386 113.89 544.751 113.976 545.023C114.062 545.281 114.233 545.475 114.491 545.604C114.749 545.732 115.107 545.818 115.565 545.861C116.038 545.89 116.661 545.904 117.435 545.904C117.993 545.904 118.451 545.876 118.81 545.818C119.182 545.747 119.49 545.618 119.733 545.432C119.991 545.231 120.199 544.952 120.356 544.594C120.528 544.221 120.7 543.734 120.872 543.133H122.161ZM133.999 541.779C133.999 542.538 133.856 543.262 133.569 543.949C133.297 544.622 132.91 545.217 132.409 545.732C131.922 546.234 131.349 546.635 130.69 546.936C130.032 547.236 129.33 547.387 128.585 547.387C127.812 547.387 127.081 547.258 126.394 547C125.706 546.728 125.104 546.355 124.589 545.883C124.088 545.396 123.687 544.816 123.386 544.143C123.085 543.469 122.935 542.717 122.935 541.887C122.935 541.142 123.063 540.433 123.321 539.76C123.593 539.072 123.966 538.471 124.438 537.955C124.911 537.439 125.47 537.031 126.114 536.73C126.773 536.43 127.489 536.279 128.263 536.279C129.079 536.279 129.838 536.415 130.54 536.688C131.242 536.945 131.851 537.318 132.366 537.805C132.882 538.277 133.283 538.857 133.569 539.545C133.856 540.218 133.999 540.963 133.999 541.779ZM131.442 542.037C131.442 541.536 131.385 541.006 131.271 540.447C131.156 539.889 130.97 539.38 130.712 538.922C130.468 538.449 130.153 538.062 129.767 537.762C129.38 537.461 128.914 537.311 128.37 537.311C127.854 537.311 127.41 537.447 127.038 537.719C126.666 537.991 126.365 538.335 126.136 538.75C125.907 539.165 125.735 539.631 125.62 540.146C125.52 540.662 125.47 541.163 125.47 541.65C125.47 542.109 125.527 542.61 125.642 543.154C125.756 543.699 125.935 544.207 126.179 544.68C126.422 545.152 126.737 545.546 127.124 545.861C127.525 546.176 127.998 546.334 128.542 546.334C129.058 546.334 129.494 546.198 129.853 545.926C130.225 545.654 130.526 545.31 130.755 544.895C130.998 544.465 131.17 543.999 131.271 543.498C131.385 542.997 131.442 542.51 131.442 542.037ZM138.812 538.191C139.041 537.862 139.241 537.597 139.413 537.396C139.585 537.182 139.764 536.995 139.95 536.838C140.151 536.68 140.38 536.551 140.638 536.451C140.91 536.337 141.175 536.279 141.433 536.279C141.604 536.279 141.784 536.308 141.97 536.365C142.17 536.423 142.349 536.508 142.507 536.623C142.664 536.738 142.793 536.888 142.894 537.074C143.008 537.246 143.065 537.454 143.065 537.697C143.065 538.055 142.922 538.363 142.636 538.621C142.349 538.879 142.027 539.008 141.669 539.008C141.411 539.008 141.203 538.979 141.046 538.922C140.888 538.865 140.752 538.8 140.638 538.729C140.537 538.657 140.451 538.592 140.38 538.535C140.308 538.478 140.229 538.449 140.144 538.449C140.029 538.449 139.893 538.492 139.735 538.578C139.592 538.664 139.449 538.786 139.306 538.943C139.177 539.087 139.062 539.273 138.962 539.502C138.862 539.717 138.812 539.953 138.812 540.211V544.615C138.812 544.945 138.826 545.202 138.854 545.389C138.897 545.575 138.998 545.718 139.155 545.818C139.313 545.919 139.549 545.983 139.864 546.012C140.179 546.026 140.609 546.033 141.153 546.033V547.086C140.781 547.072 140.315 547.057 139.757 547.043C139.198 547.029 138.618 547.021 138.017 547.021C137.429 547.021 136.849 547.021 136.276 547.021C135.718 547.036 135.245 547.057 134.858 547.086V546.033C135.259 546.033 135.575 546.026 135.804 546.012C136.033 545.983 136.205 545.926 136.319 545.84C136.434 545.754 136.498 545.618 136.513 545.432C136.541 545.231 136.556 544.959 136.556 544.615V539.695C136.556 539.352 136.549 539.079 136.534 538.879C136.52 538.678 136.47 538.528 136.384 538.428C136.298 538.313 136.169 538.249 135.997 538.234C135.84 538.206 135.61 538.191 135.31 538.191V537.332C135.825 537.26 136.276 537.153 136.663 537.01C137.05 536.852 137.415 536.616 137.759 536.301H138.94C138.926 536.487 138.912 536.673 138.897 536.859C138.883 537.031 138.869 537.21 138.854 537.396C138.84 537.583 138.826 537.747 138.812 537.891C138.812 538.02 138.812 538.12 138.812 538.191ZM151.874 540.812H145.88V541.221C145.88 541.35 145.88 541.493 145.88 541.65C145.88 541.808 145.887 541.987 145.901 542.188C145.93 542.703 146.016 543.176 146.159 543.605C146.317 544.035 146.517 544.408 146.761 544.723C147.004 545.038 147.291 545.288 147.62 545.475C147.964 545.646 148.343 545.732 148.759 545.732C149.332 545.732 149.847 545.589 150.306 545.303C150.778 545.002 151.244 544.579 151.702 544.035L152.669 544.637C152.211 545.439 151.616 546.098 150.886 546.613C150.155 547.129 149.31 547.387 148.351 547.387C147.677 547.387 147.054 547.251 146.481 546.979C145.909 546.706 145.414 546.334 144.999 545.861C144.584 545.389 144.254 544.837 144.011 544.207C143.782 543.577 143.667 542.904 143.667 542.188C143.667 541.271 143.782 540.447 144.011 539.717C144.254 538.986 144.591 538.37 145.021 537.869C145.45 537.354 145.951 536.96 146.524 536.688C147.112 536.415 147.749 536.279 148.437 536.279C148.909 536.279 149.382 536.358 149.854 536.516C150.341 536.673 150.771 536.91 151.144 537.225C151.516 537.525 151.824 537.912 152.067 538.385C152.311 538.857 152.433 539.409 152.433 540.039C152.433 540.326 152.411 540.526 152.368 540.641C152.34 540.755 152.175 540.812 151.874 540.812ZM146.052 539.652H149.79C149.962 539.652 150.055 539.638 150.069 539.609C150.098 539.581 150.112 539.488 150.112 539.33C150.112 539.115 150.069 538.9 149.983 538.686C149.912 538.456 149.797 538.249 149.64 538.062C149.482 537.876 149.289 537.726 149.06 537.611C148.845 537.497 148.601 537.439 148.329 537.439C147.685 537.439 147.169 537.647 146.782 538.062C146.41 538.478 146.166 539.008 146.052 539.652ZM157.159 536.301C157.131 536.516 157.102 536.702 157.073 536.859C157.059 537.003 157.045 537.167 157.03 537.354C157.03 537.654 157.03 537.862 157.03 537.977C157.259 537.733 157.51 537.504 157.782 537.289C158.069 537.06 158.334 536.881 158.577 536.752C158.821 536.623 159.107 536.516 159.437 536.43C159.766 536.329 160.146 536.279 160.575 536.279C160.89 536.279 161.184 536.322 161.456 536.408C161.743 536.48 161.993 536.587 162.208 536.73C162.437 536.859 162.631 537.038 162.788 537.268C162.946 537.497 163.06 537.74 163.132 537.998C163.504 537.626 163.984 537.246 164.571 536.859C165.159 536.473 165.889 536.279 166.763 536.279C167.278 536.279 167.715 536.38 168.073 536.58C168.446 536.766 168.746 537.017 168.976 537.332C169.205 537.647 169.369 538.012 169.47 538.428C169.57 538.829 169.62 539.244 169.62 539.674V544.68C169.62 544.966 169.634 545.202 169.663 545.389C169.692 545.561 169.756 545.697 169.856 545.797C169.957 545.897 170.1 545.962 170.286 545.99C170.487 546.019 170.752 546.033 171.081 546.033V547.064C170.737 547.05 170.343 547.036 169.899 547.021C169.455 547.021 168.997 547.021 168.524 547.021C168.052 547.021 167.586 547.029 167.128 547.043C166.684 547.057 166.283 547.072 165.925 547.086V546.033C166.254 546.033 166.512 546.019 166.698 545.99C166.899 545.962 167.042 545.897 167.128 545.797C167.228 545.697 167.293 545.561 167.321 545.389C167.35 545.202 167.364 544.966 167.364 544.68V540.49C167.364 540.161 167.343 539.839 167.3 539.523C167.271 539.208 167.2 538.929 167.085 538.686C166.985 538.442 166.827 538.249 166.612 538.105C166.412 537.962 166.14 537.891 165.796 537.891C165.61 537.891 165.402 537.934 165.173 538.02C164.944 538.105 164.715 538.213 164.485 538.342C164.256 538.456 164.034 538.585 163.819 538.729C163.619 538.872 163.454 539.001 163.325 539.115V544.68C163.325 544.966 163.34 545.202 163.368 545.389C163.397 545.561 163.461 545.697 163.562 545.797C163.676 545.897 163.834 545.962 164.034 545.99C164.249 546.019 164.528 546.033 164.872 546.033V547.064C164.514 547.05 164.106 547.036 163.647 547.021C163.189 547.021 162.716 547.021 162.229 547.021C161.757 547.021 161.291 547.029 160.833 547.043C160.375 547.057 159.966 547.072 159.608 547.086V546.033C159.938 546.033 160.196 546.019 160.382 545.99C160.582 545.947 160.733 545.883 160.833 545.797C160.933 545.697 160.998 545.561 161.026 545.389C161.055 545.202 161.069 544.966 161.069 544.68V540.49C161.069 540.146 161.048 539.824 161.005 539.523C160.976 539.208 160.905 538.929 160.79 538.686C160.69 538.442 160.532 538.249 160.317 538.105C160.117 537.962 159.845 537.891 159.501 537.891C159.358 537.891 159.179 537.934 158.964 538.02C158.749 538.105 158.52 538.213 158.276 538.342C158.047 538.471 157.818 538.614 157.589 538.771C157.36 538.929 157.174 539.079 157.03 539.223V544.68C157.03 544.966 157.045 545.202 157.073 545.389C157.102 545.561 157.166 545.697 157.267 545.797C157.381 545.897 157.539 545.962 157.739 545.99C157.94 546.019 158.205 546.033 158.534 546.033V547.064C158.162 547.05 157.746 547.036 157.288 547.021C156.844 547.021 156.379 547.021 155.892 547.021C155.419 547.021 154.946 547.029 154.474 547.043C154.015 547.057 153.6 547.072 153.228 547.086V546.033C153.586 546.033 153.865 546.019 154.065 545.99C154.266 545.947 154.416 545.883 154.517 545.797C154.631 545.697 154.703 545.561 154.731 545.389C154.76 545.202 154.774 544.966 154.774 544.68V539.695C154.774 539.352 154.767 539.079 154.753 538.879C154.739 538.678 154.688 538.528 154.603 538.428C154.517 538.313 154.388 538.249 154.216 538.234C154.058 538.206 153.829 538.191 153.528 538.191V537.332C154.044 537.26 154.495 537.153 154.882 537.01C155.269 536.852 155.634 536.616 155.978 536.301H157.159ZM182.21 538.9V544.852C182.21 545.138 182.217 545.36 182.231 545.518C182.26 545.675 182.325 545.79 182.425 545.861C182.525 545.933 182.675 545.983 182.876 546.012C183.076 546.026 183.356 546.033 183.714 546.033V547.043C183.213 547.043 182.754 547.036 182.339 547.021C181.924 547.007 181.522 547 181.136 547C180.72 547 180.291 547 179.847 547C179.417 547.014 178.951 547.029 178.45 547.043V546.033C178.808 546.033 179.088 546.026 179.288 546.012C179.489 545.997 179.639 545.954 179.739 545.883C179.84 545.797 179.897 545.675 179.911 545.518C179.94 545.36 179.954 545.138 179.954 544.852V539.695C179.954 539.352 179.947 539.079 179.933 538.879C179.918 538.678 179.868 538.528 179.782 538.428C179.696 538.313 179.567 538.249 179.396 538.234C179.238 538.206 179.009 538.191 178.708 538.191V537.332C179.224 537.26 179.675 537.153 180.062 537.01C180.448 536.852 180.813 536.616 181.157 536.301H182.339C182.282 536.73 182.246 537.189 182.231 537.676C182.217 538.148 182.21 538.557 182.21 538.9ZM181.007 530.607C181.437 530.607 181.795 530.758 182.081 531.059C182.382 531.345 182.532 531.674 182.532 532.047C182.532 532.405 182.382 532.727 182.081 533.014C181.795 533.3 181.437 533.443 181.007 533.443C180.792 533.443 180.591 533.408 180.405 533.336C180.233 533.25 180.076 533.143 179.933 533.014C179.789 532.885 179.675 532.734 179.589 532.562C179.517 532.391 179.481 532.219 179.481 532.047C179.481 531.674 179.632 531.345 179.933 531.059C180.233 530.758 180.591 530.607 181.007 530.607ZM188.312 536.301C188.269 536.73 188.24 537.01 188.226 537.139C188.226 537.253 188.218 537.447 188.204 537.719C188.405 537.533 188.605 537.361 188.806 537.203C189.021 537.031 189.243 536.881 189.472 536.752C189.715 536.609 189.994 536.494 190.31 536.408C190.625 536.322 190.968 536.279 191.341 536.279C192 536.279 192.594 536.43 193.124 536.73C193.668 537.017 194.134 537.404 194.521 537.891C194.907 538.363 195.201 538.9 195.401 539.502C195.616 540.104 195.724 540.712 195.724 541.328C195.724 542.13 195.58 542.896 195.294 543.627C195.022 544.357 194.628 545.002 194.112 545.561C193.611 546.119 193.002 546.563 192.286 546.893C191.57 547.222 190.775 547.387 189.901 547.387C189.715 547.387 189.529 547.372 189.343 547.344C189.157 547.315 188.978 547.272 188.806 547.215C188.648 547.172 188.512 547.122 188.397 547.064C188.283 547.021 188.218 546.993 188.204 546.979V549.879C188.204 550.165 188.218 550.395 188.247 550.566C188.29 550.738 188.376 550.867 188.505 550.953C188.648 551.053 188.856 551.118 189.128 551.146C189.4 551.175 189.78 551.189 190.267 551.189V552.264C189.966 552.249 189.529 552.235 188.956 552.221C188.383 552.206 187.789 552.199 187.173 552.199C186.557 552.199 185.963 552.206 185.39 552.221C184.831 552.235 184.409 552.249 184.122 552.264V551.189C184.537 551.189 184.867 551.175 185.11 551.146C185.354 551.118 185.533 551.053 185.647 550.953C185.776 550.867 185.855 550.731 185.884 550.545C185.912 550.373 185.927 550.13 185.927 549.814V539.695C185.927 539.352 185.92 539.079 185.905 538.879C185.891 538.678 185.841 538.528 185.755 538.428C185.669 538.313 185.54 538.249 185.368 538.234C185.211 538.206 184.981 538.191 184.681 538.191V537.332C185.196 537.26 185.647 537.153 186.034 537.01C186.421 536.852 186.786 536.616 187.13 536.301H188.312ZM188.204 544.916C188.276 545.045 188.369 545.188 188.483 545.346C188.598 545.503 188.741 545.654 188.913 545.797C189.085 545.926 189.285 546.033 189.515 546.119C189.758 546.205 190.045 546.248 190.374 546.248C190.875 546.248 191.319 546.126 191.706 545.883C192.093 545.639 192.415 545.324 192.673 544.938C192.931 544.551 193.124 544.121 193.253 543.648C193.396 543.161 193.468 542.682 193.468 542.209C193.468 541.636 193.41 541.092 193.296 540.576C193.196 540.046 193.024 539.588 192.78 539.201C192.537 538.8 192.222 538.485 191.835 538.256C191.463 538.027 191.004 537.912 190.46 537.912C190.288 537.912 190.088 537.955 189.858 538.041C189.629 538.113 189.4 538.206 189.171 538.32C188.956 538.435 188.756 538.557 188.569 538.686C188.397 538.8 188.276 538.9 188.204 538.986V544.916ZM196.948 543.562H198.216C198.273 543.921 198.352 544.264 198.452 544.594C198.567 544.923 198.71 545.21 198.882 545.453C199.054 545.697 199.261 545.897 199.505 546.055C199.763 546.198 200.063 546.27 200.407 546.27C201.023 546.27 201.438 546.126 201.653 545.84C201.882 545.553 201.997 545.224 201.997 544.852C201.997 544.551 201.947 544.293 201.847 544.078C201.746 543.863 201.603 543.677 201.417 543.52C201.231 543.348 201.009 543.197 200.751 543.068C200.507 542.925 200.235 542.768 199.935 542.596C199.118 542.18 198.445 541.722 197.915 541.221C197.399 540.719 197.142 540.096 197.142 539.352C197.142 538.965 197.22 538.592 197.378 538.234C197.55 537.862 197.793 537.533 198.108 537.246C198.424 536.96 198.81 536.73 199.269 536.559C199.727 536.372 200.243 536.279 200.815 536.279C201.274 536.279 201.725 536.337 202.169 536.451C202.627 536.566 203.121 536.766 203.651 537.053L203.802 539.674H202.599C202.484 538.843 202.262 538.263 201.933 537.934C201.603 537.604 201.166 537.439 200.622 537.439C200.207 537.439 199.849 537.554 199.548 537.783C199.247 537.998 199.097 538.313 199.097 538.729C199.097 539.029 199.168 539.287 199.312 539.502C199.455 539.717 199.641 539.917 199.87 540.104C200.114 540.275 200.386 540.44 200.687 540.598C200.987 540.755 201.302 540.913 201.632 541.07C201.947 541.214 202.262 541.364 202.577 541.521C202.892 541.679 203.172 541.872 203.415 542.102C203.673 542.331 203.881 542.61 204.038 542.939C204.196 543.255 204.274 543.648 204.274 544.121C204.274 544.522 204.196 544.923 204.038 545.324C203.881 545.711 203.637 546.062 203.308 546.377C202.978 546.678 202.563 546.921 202.062 547.107C201.56 547.294 200.959 547.387 200.257 547.387C199.741 547.387 199.226 547.315 198.71 547.172C198.194 547.029 197.715 546.814 197.271 546.527L196.948 543.562ZM213.062 547.043V545.732C212.632 546.205 212.116 546.592 211.515 546.893C210.913 547.193 210.183 547.358 209.323 547.387C209.008 547.387 208.686 547.329 208.356 547.215C208.041 547.115 207.755 546.95 207.497 546.721C207.239 546.477 207.032 546.176 206.874 545.818C206.716 545.46 206.638 545.031 206.638 544.529V538.729C206.638 538.499 206.623 538.32 206.595 538.191C206.58 538.048 206.523 537.941 206.423 537.869C206.337 537.783 206.201 537.733 206.015 537.719C205.843 537.69 205.599 537.661 205.284 537.633V536.795C205.771 536.781 206.337 536.759 206.981 536.73C207.626 536.688 208.292 536.637 208.979 536.58C208.951 536.91 208.929 537.282 208.915 537.697C208.901 538.113 208.894 538.442 208.894 538.686V543.326C208.894 543.87 208.915 544.307 208.958 544.637C209.015 544.952 209.094 545.195 209.194 545.367C209.309 545.539 209.445 545.654 209.603 545.711C209.774 545.768 209.982 545.797 210.226 545.797C210.641 545.797 211.121 545.675 211.665 545.432C212.209 545.188 212.682 544.866 213.083 544.465V538.729C213.083 538.499 213.062 538.32 213.019 538.191C212.976 538.062 212.897 537.962 212.782 537.891C212.668 537.805 212.51 537.747 212.31 537.719C212.109 537.69 211.844 537.661 211.515 537.633V536.795C212.002 536.781 212.603 536.759 213.319 536.73C214.035 536.688 214.737 536.637 215.425 536.58C215.396 536.91 215.375 537.282 215.36 537.697C215.346 538.113 215.339 538.442 215.339 538.686V545.152C215.339 545.339 215.346 545.489 215.36 545.604C215.389 545.704 215.446 545.775 215.532 545.818C215.632 545.861 215.783 545.883 215.983 545.883C216.184 545.868 216.463 545.847 216.821 545.818V546.678C216.649 546.721 216.442 546.771 216.198 546.828C215.955 546.871 215.697 546.928 215.425 547C215.167 547.057 214.909 547.122 214.651 547.193C214.394 547.265 214.164 547.337 213.964 547.408C213.72 547.508 213.506 547.494 213.319 547.365C213.147 547.236 213.062 547.129 213.062 547.043ZM221.44 536.301C221.412 536.516 221.383 536.702 221.354 536.859C221.34 537.003 221.326 537.167 221.312 537.354C221.312 537.654 221.312 537.862 221.312 537.977C221.541 537.733 221.791 537.504 222.063 537.289C222.35 537.06 222.615 536.881 222.858 536.752C223.102 536.623 223.388 536.516 223.718 536.43C224.047 536.329 224.427 536.279 224.856 536.279C225.172 536.279 225.465 536.322 225.737 536.408C226.024 536.48 226.274 536.587 226.489 536.73C226.718 536.859 226.912 537.038 227.069 537.268C227.227 537.497 227.341 537.74 227.413 537.998C227.785 537.626 228.265 537.246 228.853 536.859C229.44 536.473 230.17 536.279 231.044 536.279C231.56 536.279 231.996 536.38 232.354 536.58C232.727 536.766 233.028 537.017 233.257 537.332C233.486 537.647 233.651 538.012 233.751 538.428C233.851 538.829 233.901 539.244 233.901 539.674V544.68C233.901 544.966 233.916 545.202 233.944 545.389C233.973 545.561 234.037 545.697 234.138 545.797C234.238 545.897 234.381 545.962 234.567 545.99C234.768 546.019 235.033 546.033 235.362 546.033V547.064C235.019 547.05 234.625 547.036 234.181 547.021C233.737 547.021 233.278 547.021 232.806 547.021C232.333 547.021 231.868 547.029 231.409 547.043C230.965 547.057 230.564 547.072 230.206 547.086V546.033C230.535 546.033 230.793 546.019 230.979 545.99C231.18 545.962 231.323 545.897 231.409 545.797C231.509 545.697 231.574 545.561 231.603 545.389C231.631 545.202 231.646 544.966 231.646 544.68V540.49C231.646 540.161 231.624 539.839 231.581 539.523C231.552 539.208 231.481 538.929 231.366 538.686C231.266 538.442 231.108 538.249 230.894 538.105C230.693 537.962 230.421 537.891 230.077 537.891C229.891 537.891 229.683 537.934 229.454 538.02C229.225 538.105 228.996 538.213 228.767 538.342C228.537 538.456 228.315 538.585 228.101 538.729C227.9 538.872 227.735 539.001 227.606 539.115V544.68C227.606 544.966 227.621 545.202 227.649 545.389C227.678 545.561 227.743 545.697 227.843 545.797C227.957 545.897 228.115 545.962 228.315 545.99C228.53 546.019 228.81 546.033 229.153 546.033V547.064C228.795 547.05 228.387 547.036 227.929 547.021C227.47 547.021 226.998 547.021 226.511 547.021C226.038 547.021 225.573 547.029 225.114 547.043C224.656 547.057 224.248 547.072 223.89 547.086V546.033C224.219 546.033 224.477 546.019 224.663 545.99C224.864 545.947 225.014 545.883 225.114 545.797C225.215 545.697 225.279 545.561 225.308 545.389C225.336 545.202 225.351 544.966 225.351 544.68V540.49C225.351 540.146 225.329 539.824 225.286 539.523C225.257 539.208 225.186 538.929 225.071 538.686C224.971 538.442 224.813 538.249 224.599 538.105C224.398 537.962 224.126 537.891 223.782 537.891C223.639 537.891 223.46 537.934 223.245 538.02C223.03 538.105 222.801 538.213 222.558 538.342C222.328 538.471 222.099 538.614 221.87 538.771C221.641 538.929 221.455 539.079 221.312 539.223V544.68C221.312 544.966 221.326 545.202 221.354 545.389C221.383 545.561 221.448 545.697 221.548 545.797C221.662 545.897 221.82 545.962 222.021 545.99C222.221 546.019 222.486 546.033 222.815 546.033V547.064C222.443 547.05 222.028 547.036 221.569 547.021C221.125 547.021 220.66 547.021 220.173 547.021C219.7 547.021 219.228 547.029 218.755 547.043C218.297 547.057 217.881 547.072 217.509 547.086V546.033C217.867 546.033 218.146 546.019 218.347 545.99C218.547 545.947 218.698 545.883 218.798 545.797C218.912 545.697 218.984 545.561 219.013 545.389C219.041 545.202 219.056 544.966 219.056 544.68V539.695C219.056 539.352 219.049 539.079 219.034 538.879C219.02 538.678 218.97 538.528 218.884 538.428C218.798 538.313 218.669 538.249 218.497 538.234C218.34 538.206 218.11 538.191 217.81 538.191V537.332C218.325 537.26 218.776 537.153 219.163 537.01C219.55 536.852 219.915 536.616 220.259 536.301H221.44ZM250.616 544.443V539.352C250.616 538.965 250.545 538.65 250.401 538.406C250.272 538.148 250.101 537.955 249.886 537.826C249.671 537.683 249.435 537.583 249.177 537.525C248.933 537.468 248.704 537.439 248.489 537.439C248.117 537.439 247.737 537.533 247.351 537.719C246.978 537.891 246.634 538.156 246.319 538.514C246.019 538.872 245.768 539.33 245.567 539.889C245.381 540.433 245.288 541.07 245.288 541.801C245.288 542.402 245.367 542.947 245.524 543.434C245.682 543.921 245.904 544.343 246.19 544.701C246.477 545.045 246.813 545.31 247.2 545.496C247.601 545.682 248.038 545.775 248.511 545.775C248.64 545.775 248.819 545.74 249.048 545.668C249.291 545.596 249.528 545.503 249.757 545.389C249.986 545.26 250.187 545.117 250.358 544.959C250.53 544.801 250.616 544.63 250.616 544.443ZM250.616 536.816V532.863C250.616 532.52 250.609 532.255 250.595 532.068C250.58 531.882 250.53 531.746 250.444 531.66C250.358 531.574 250.215 531.531 250.015 531.531C249.828 531.517 249.556 531.51 249.198 531.51V530.65C250.287 530.507 251.168 530.128 251.841 529.512H253.022C252.965 529.956 252.922 530.421 252.894 530.908C252.879 531.381 252.872 531.782 252.872 532.111V544.809C252.872 545.023 252.879 545.188 252.894 545.303C252.908 545.417 252.965 545.503 253.065 545.561C253.166 545.604 253.316 545.625 253.517 545.625C253.717 545.611 254.004 545.589 254.376 545.561V546.377C254.061 546.492 253.646 546.642 253.13 546.828C252.614 547.014 252.156 547.201 251.755 547.387C251.612 547.458 251.468 547.494 251.325 547.494C251.196 547.508 251.075 547.494 250.96 547.451C250.86 547.423 250.774 547.38 250.702 547.322C250.645 547.279 250.616 547.236 250.616 547.193V546.291C250.459 546.434 250.28 546.563 250.079 546.678C249.893 546.792 249.678 546.9 249.435 547C249.205 547.086 248.926 547.165 248.597 547.236C248.267 547.322 247.931 547.365 247.587 547.365C246.885 547.365 246.248 547.222 245.675 546.936C245.116 546.635 244.636 546.248 244.235 545.775C243.834 545.288 243.526 544.737 243.312 544.121C243.097 543.505 242.989 542.875 242.989 542.23C242.989 541.443 243.132 540.691 243.419 539.975C243.72 539.258 244.128 538.628 244.644 538.084C245.159 537.54 245.768 537.103 246.47 536.773C247.172 536.444 247.931 536.279 248.747 536.279C249.162 536.279 249.535 536.329 249.864 536.43C250.194 536.53 250.444 536.659 250.616 536.816ZM266.407 541.779C266.407 542.538 266.264 543.262 265.978 543.949C265.705 544.622 265.319 545.217 264.817 545.732C264.33 546.234 263.757 546.635 263.099 546.936C262.44 547.236 261.738 547.387 260.993 547.387C260.22 547.387 259.489 547.258 258.802 547C258.114 546.728 257.513 546.355 256.997 545.883C256.496 545.396 256.095 544.816 255.794 544.143C255.493 543.469 255.343 542.717 255.343 541.887C255.343 541.142 255.472 540.433 255.729 539.76C256.002 539.072 256.374 538.471 256.847 537.955C257.319 537.439 257.878 537.031 258.522 536.73C259.181 536.43 259.897 536.279 260.671 536.279C261.487 536.279 262.246 536.415 262.948 536.688C263.65 536.945 264.259 537.318 264.774 537.805C265.29 538.277 265.691 538.857 265.978 539.545C266.264 540.218 266.407 540.963 266.407 541.779ZM263.851 542.037C263.851 541.536 263.793 541.006 263.679 540.447C263.564 539.889 263.378 539.38 263.12 538.922C262.877 538.449 262.562 538.062 262.175 537.762C261.788 537.461 261.323 537.311 260.778 537.311C260.263 537.311 259.819 537.447 259.446 537.719C259.074 537.991 258.773 538.335 258.544 538.75C258.315 539.165 258.143 539.631 258.028 540.146C257.928 540.662 257.878 541.163 257.878 541.65C257.878 542.109 257.935 542.61 258.05 543.154C258.164 543.699 258.343 544.207 258.587 544.68C258.83 545.152 259.146 545.546 259.532 545.861C259.933 546.176 260.406 546.334 260.95 546.334C261.466 546.334 261.903 546.198 262.261 545.926C262.633 545.654 262.934 545.31 263.163 544.895C263.407 544.465 263.578 543.999 263.679 543.498C263.793 542.997 263.851 542.51 263.851 542.037ZM268.942 544.615V532.928C268.942 532.57 268.935 532.298 268.921 532.111C268.907 531.911 268.856 531.768 268.771 531.682C268.685 531.581 268.541 531.531 268.341 531.531C268.155 531.517 267.882 531.51 267.524 531.51V530.65C268.613 530.507 269.494 530.128 270.167 529.512H271.349C271.306 529.956 271.27 530.421 271.241 530.908C271.213 531.381 271.198 531.782 271.198 532.111V544.615C271.198 544.902 271.213 545.138 271.241 545.324C271.284 545.51 271.356 545.661 271.456 545.775C271.571 545.876 271.721 545.947 271.907 545.99C272.108 546.019 272.373 546.033 272.702 546.033V547.064C272.344 547.05 271.929 547.036 271.456 547.021C270.998 547.021 270.525 547.021 270.038 547.021C269.565 547.021 269.1 547.029 268.642 547.043C268.183 547.057 267.782 547.072 267.438 547.086V546.033C267.797 546.033 268.076 546.019 268.276 545.99C268.477 545.962 268.627 545.897 268.728 545.797C268.828 545.697 268.885 545.553 268.899 545.367C268.928 545.181 268.942 544.93 268.942 544.615ZM284.69 541.779C284.69 542.538 284.547 543.262 284.261 543.949C283.989 544.622 283.602 545.217 283.101 545.732C282.614 546.234 282.041 546.635 281.382 546.936C280.723 547.236 280.021 547.387 279.276 547.387C278.503 547.387 277.772 547.258 277.085 547C276.397 546.728 275.796 546.355 275.28 545.883C274.779 545.396 274.378 544.816 274.077 544.143C273.776 543.469 273.626 542.717 273.626 541.887C273.626 541.142 273.755 540.433 274.013 539.76C274.285 539.072 274.657 538.471 275.13 537.955C275.603 537.439 276.161 537.031 276.806 536.73C277.465 536.43 278.181 536.279 278.954 536.279C279.771 536.279 280.53 536.415 281.231 536.688C281.933 536.945 282.542 537.318 283.058 537.805C283.573 538.277 283.974 538.857 284.261 539.545C284.547 540.218 284.69 540.963 284.69 541.779ZM282.134 542.037C282.134 541.536 282.076 541.006 281.962 540.447C281.847 539.889 281.661 539.38 281.403 538.922C281.16 538.449 280.845 538.062 280.458 537.762C280.071 537.461 279.606 537.311 279.062 537.311C278.546 537.311 278.102 537.447 277.729 537.719C277.357 537.991 277.056 538.335 276.827 538.75C276.598 539.165 276.426 539.631 276.312 540.146C276.211 540.662 276.161 541.163 276.161 541.65C276.161 542.109 276.218 542.61 276.333 543.154C276.448 543.699 276.627 544.207 276.87 544.68C277.114 545.152 277.429 545.546 277.815 545.861C278.216 546.176 278.689 546.334 279.233 546.334C279.749 546.334 280.186 546.198 280.544 545.926C280.916 545.654 281.217 545.31 281.446 544.895C281.69 544.465 281.862 543.999 281.962 543.498C282.076 542.997 282.134 542.51 282.134 542.037ZM289.503 538.191C289.732 537.862 289.933 537.597 290.104 537.396C290.276 537.182 290.455 536.995 290.642 536.838C290.842 536.68 291.071 536.551 291.329 536.451C291.601 536.337 291.866 536.279 292.124 536.279C292.296 536.279 292.475 536.308 292.661 536.365C292.862 536.423 293.041 536.508 293.198 536.623C293.356 536.738 293.485 536.888 293.585 537.074C293.7 537.246 293.757 537.454 293.757 537.697C293.757 538.055 293.614 538.363 293.327 538.621C293.041 538.879 292.718 539.008 292.36 539.008C292.103 539.008 291.895 538.979 291.737 538.922C291.58 538.865 291.444 538.8 291.329 538.729C291.229 538.657 291.143 538.592 291.071 538.535C291 538.478 290.921 538.449 290.835 538.449C290.72 538.449 290.584 538.492 290.427 538.578C290.284 538.664 290.14 538.786 289.997 538.943C289.868 539.087 289.754 539.273 289.653 539.502C289.553 539.717 289.503 539.953 289.503 540.211V544.615C289.503 544.945 289.517 545.202 289.546 545.389C289.589 545.575 289.689 545.718 289.847 545.818C290.004 545.919 290.241 545.983 290.556 546.012C290.871 546.026 291.3 546.033 291.845 546.033V547.086C291.472 547.072 291.007 547.057 290.448 547.043C289.89 547.029 289.31 547.021 288.708 547.021C288.121 547.021 287.541 547.021 286.968 547.021C286.409 547.036 285.937 547.057 285.55 547.086V546.033C285.951 546.033 286.266 546.026 286.495 546.012C286.724 545.983 286.896 545.926 287.011 545.84C287.125 545.754 287.19 545.618 287.204 545.432C287.233 545.231 287.247 544.959 287.247 544.615V539.695C287.247 539.352 287.24 539.079 287.226 538.879C287.211 538.678 287.161 538.528 287.075 538.428C286.989 538.313 286.86 538.249 286.688 538.234C286.531 538.206 286.302 538.191 286.001 538.191V537.332C286.517 537.26 286.968 537.153 287.354 537.01C287.741 536.852 288.106 536.616 288.45 536.301H289.632C289.618 536.487 289.603 536.673 289.589 536.859C289.575 537.031 289.56 537.21 289.546 537.396C289.532 537.583 289.517 537.747 289.503 537.891C289.503 538.02 289.503 538.12 289.503 538.191ZM301.019 543.562H302.286C302.343 543.921 302.422 544.264 302.522 544.594C302.637 544.923 302.78 545.21 302.952 545.453C303.124 545.697 303.332 545.897 303.575 546.055C303.833 546.198 304.134 546.27 304.478 546.27C305.093 546.27 305.509 546.126 305.724 545.84C305.953 545.553 306.067 545.224 306.067 544.852C306.067 544.551 306.017 544.293 305.917 544.078C305.817 543.863 305.674 543.677 305.487 543.52C305.301 543.348 305.079 543.197 304.821 543.068C304.578 542.925 304.306 542.768 304.005 542.596C303.188 542.18 302.515 541.722 301.985 541.221C301.47 540.719 301.212 540.096 301.212 539.352C301.212 538.965 301.291 538.592 301.448 538.234C301.62 537.862 301.864 537.533 302.179 537.246C302.494 536.96 302.881 536.73 303.339 536.559C303.797 536.372 304.313 536.279 304.886 536.279C305.344 536.279 305.795 536.337 306.239 536.451C306.698 536.566 307.192 536.766 307.722 537.053L307.872 539.674H306.669C306.554 538.843 306.332 538.263 306.003 537.934C305.674 537.604 305.237 537.439 304.692 537.439C304.277 537.439 303.919 537.554 303.618 537.783C303.317 537.998 303.167 538.313 303.167 538.729C303.167 539.029 303.239 539.287 303.382 539.502C303.525 539.717 303.711 539.917 303.94 540.104C304.184 540.275 304.456 540.44 304.757 540.598C305.058 540.755 305.373 540.913 305.702 541.07C306.017 541.214 306.332 541.364 306.647 541.521C306.963 541.679 307.242 541.872 307.485 542.102C307.743 542.331 307.951 542.61 308.108 542.939C308.266 543.255 308.345 543.648 308.345 544.121C308.345 544.522 308.266 544.923 308.108 545.324C307.951 545.711 307.707 546.062 307.378 546.377C307.049 546.678 306.633 546.921 306.132 547.107C305.631 547.294 305.029 547.387 304.327 547.387C303.812 547.387 303.296 547.315 302.78 547.172C302.265 547.029 301.785 546.814 301.341 546.527L301.019 543.562ZM313.05 538.9V544.852C313.05 545.138 313.057 545.36 313.071 545.518C313.1 545.675 313.164 545.79 313.265 545.861C313.365 545.933 313.515 545.983 313.716 546.012C313.916 546.026 314.196 546.033 314.554 546.033V547.043C314.052 547.043 313.594 547.036 313.179 547.021C312.763 547.007 312.362 547 311.976 547C311.56 547 311.131 547 310.687 547C310.257 547.014 309.791 547.029 309.29 547.043V546.033C309.648 546.033 309.927 546.026 310.128 546.012C310.328 545.997 310.479 545.954 310.579 545.883C310.679 545.797 310.737 545.675 310.751 545.518C310.78 545.36 310.794 545.138 310.794 544.852V539.695C310.794 539.352 310.787 539.079 310.772 538.879C310.758 538.678 310.708 538.528 310.622 538.428C310.536 538.313 310.407 538.249 310.235 538.234C310.078 538.206 309.849 538.191 309.548 538.191V537.332C310.063 537.26 310.515 537.153 310.901 537.01C311.288 536.852 311.653 536.616 311.997 536.301H313.179C313.121 536.73 313.086 537.189 313.071 537.676C313.057 538.148 313.05 538.557 313.05 538.9ZM311.847 530.607C312.276 530.607 312.634 530.758 312.921 531.059C313.222 531.345 313.372 531.674 313.372 532.047C313.372 532.405 313.222 532.727 312.921 533.014C312.634 533.3 312.276 533.443 311.847 533.443C311.632 533.443 311.431 533.408 311.245 533.336C311.073 533.25 310.916 533.143 310.772 533.014C310.629 532.885 310.515 532.734 310.429 532.562C310.357 532.391 310.321 532.219 310.321 532.047C310.321 531.674 310.472 531.345 310.772 531.059C311.073 530.758 311.431 530.607 311.847 530.607ZM318.657 538.256V544.057C318.657 544.443 318.679 544.758 318.722 545.002C318.765 545.245 318.822 545.439 318.894 545.582C318.979 545.711 319.073 545.804 319.173 545.861C319.273 545.904 319.381 545.926 319.495 545.926C319.581 545.926 319.696 545.904 319.839 545.861C319.996 545.818 320.161 545.761 320.333 545.689C320.519 545.604 320.713 545.496 320.913 545.367C321.114 545.238 321.307 545.088 321.493 544.916L322.116 545.818C321.658 546.291 321.149 546.671 320.591 546.957C320.047 547.243 319.466 547.387 318.851 547.387C318.077 547.387 317.476 547.186 317.046 546.785C316.616 546.37 316.401 545.818 316.401 545.131V538.256H314.919V537.525C315.664 537.325 316.208 536.974 316.552 536.473C316.896 535.971 317.146 535.248 317.304 534.303H318.657V536.881H322.03V538.256H318.657ZM138.113 569.68V567.08C136.853 567.381 135.936 567.717 135.363 568.09C134.805 568.462 134.525 568.928 134.525 569.486C134.525 570.088 134.633 570.475 134.848 570.646C135.077 570.818 135.421 570.904 135.879 570.904C136.266 570.904 136.66 570.775 137.061 570.518C137.476 570.245 137.827 569.966 138.113 569.68ZM142.023 570.023L142.26 571.033C141.93 571.348 141.558 571.656 141.143 571.957C140.727 572.243 140.255 572.387 139.725 572.387C139.481 572.387 139.259 572.344 139.059 572.258C138.872 572.172 138.708 572.072 138.564 571.957C138.436 571.842 138.335 571.699 138.264 571.527C138.206 571.355 138.171 571.219 138.156 571.119C138.027 571.262 137.863 571.413 137.662 571.57C137.476 571.714 137.254 571.842 136.996 571.957C136.753 572.072 136.445 572.172 136.072 572.258C135.714 572.344 135.327 572.387 134.912 572.387C134.525 572.387 134.167 572.322 133.838 572.193C133.508 572.064 133.222 571.893 132.979 571.678C132.749 571.463 132.57 571.212 132.441 570.926C132.312 570.625 132.255 570.31 132.27 569.98C132.284 569.408 132.449 568.921 132.764 568.52C133.093 568.118 133.523 567.768 134.053 567.467C134.597 567.166 135.213 566.901 135.9 566.672C136.602 566.443 137.34 566.214 138.113 565.984V564.652C138.113 564.079 137.992 563.635 137.748 563.32C137.519 562.991 137.082 562.826 136.438 562.826C135.979 562.826 135.592 562.962 135.277 563.234C134.962 563.507 134.79 563.865 134.762 564.309C134.762 564.667 134.654 564.96 134.439 565.189C134.225 565.404 133.931 565.512 133.559 565.512C133.186 565.512 132.928 565.411 132.785 565.211C132.642 565.01 132.57 564.781 132.57 564.523C132.57 564.108 132.757 563.714 133.129 563.342C133.501 562.969 134.132 562.547 135.02 562.074C135.507 561.831 135.908 561.645 136.223 561.516C136.552 561.372 136.932 561.301 137.361 561.301C137.777 561.301 138.163 561.358 138.521 561.473C138.894 561.587 139.216 561.759 139.488 561.988C139.775 562.203 139.997 562.475 140.154 562.805C140.312 563.12 140.391 563.478 140.391 563.879V569.594C140.391 569.952 140.398 570.224 140.412 570.41C140.441 570.596 140.505 570.704 140.605 570.732C140.72 570.761 140.885 570.718 141.1 570.604C141.329 570.475 141.637 570.281 142.023 570.023ZM146.922 561.301C146.893 561.516 146.865 561.702 146.836 561.859C146.822 562.003 146.807 562.167 146.793 562.354C146.793 562.654 146.793 562.862 146.793 562.977C147.022 562.733 147.273 562.504 147.545 562.289C147.831 562.06 148.096 561.881 148.34 561.752C148.583 561.623 148.87 561.516 149.199 561.43C149.529 561.329 149.908 561.279 150.338 561.279C150.653 561.279 150.947 561.322 151.219 561.408C151.505 561.48 151.756 561.587 151.971 561.73C152.2 561.859 152.393 562.038 152.551 562.268C152.708 562.497 152.823 562.74 152.895 562.998C153.267 562.626 153.747 562.246 154.334 561.859C154.921 561.473 155.652 561.279 156.525 561.279C157.041 561.279 157.478 561.38 157.836 561.58C158.208 561.766 158.509 562.017 158.738 562.332C158.967 562.647 159.132 563.012 159.232 563.428C159.333 563.829 159.383 564.244 159.383 564.674V569.68C159.383 569.966 159.397 570.202 159.426 570.389C159.454 570.561 159.519 570.697 159.619 570.797C159.719 570.897 159.863 570.962 160.049 570.99C160.249 571.019 160.514 571.033 160.844 571.033V572.064C160.5 572.05 160.106 572.036 159.662 572.021C159.218 572.021 158.76 572.021 158.287 572.021C157.814 572.021 157.349 572.029 156.891 572.043C156.447 572.057 156.046 572.072 155.688 572.086V571.033C156.017 571.033 156.275 571.019 156.461 570.99C156.661 570.962 156.805 570.897 156.891 570.797C156.991 570.697 157.055 570.561 157.084 570.389C157.113 570.202 157.127 569.966 157.127 569.68V565.49C157.127 565.161 157.105 564.839 157.062 564.523C157.034 564.208 156.962 563.929 156.848 563.686C156.747 563.442 156.59 563.249 156.375 563.105C156.174 562.962 155.902 562.891 155.559 562.891C155.372 562.891 155.165 562.934 154.936 563.02C154.706 563.105 154.477 563.213 154.248 563.342C154.019 563.456 153.797 563.585 153.582 563.729C153.382 563.872 153.217 564.001 153.088 564.115V569.68C153.088 569.966 153.102 570.202 153.131 570.389C153.16 570.561 153.224 570.697 153.324 570.797C153.439 570.897 153.596 570.962 153.797 570.99C154.012 571.019 154.291 571.033 154.635 571.033V572.064C154.277 572.05 153.868 572.036 153.41 572.021C152.952 572.021 152.479 572.021 151.992 572.021C151.52 572.021 151.054 572.029 150.596 572.043C150.137 572.057 149.729 572.072 149.371 572.086V571.033C149.701 571.033 149.958 571.019 150.145 570.99C150.345 570.947 150.495 570.883 150.596 570.797C150.696 570.697 150.76 570.561 150.789 570.389C150.818 570.202 150.832 569.966 150.832 569.68V565.49C150.832 565.146 150.811 564.824 150.768 564.523C150.739 564.208 150.667 563.929 150.553 563.686C150.452 563.442 150.295 563.249 150.08 563.105C149.88 562.962 149.607 562.891 149.264 562.891C149.12 562.891 148.941 562.934 148.727 563.02C148.512 563.105 148.283 563.213 148.039 563.342C147.81 563.471 147.581 563.614 147.352 563.771C147.122 563.929 146.936 564.079 146.793 564.223V569.68C146.793 569.966 146.807 570.202 146.836 570.389C146.865 570.561 146.929 570.697 147.029 570.797C147.144 570.897 147.301 570.962 147.502 570.99C147.702 571.019 147.967 571.033 148.297 571.033V572.064C147.924 572.05 147.509 572.036 147.051 572.021C146.607 572.021 146.141 572.021 145.654 572.021C145.182 572.021 144.709 572.029 144.236 572.043C143.778 572.057 143.363 572.072 142.99 572.086V571.033C143.348 571.033 143.628 571.019 143.828 570.99C144.029 570.947 144.179 570.883 144.279 570.797C144.394 570.697 144.465 570.561 144.494 570.389C144.523 570.202 144.537 569.966 144.537 569.68V564.695C144.537 564.352 144.53 564.079 144.516 563.879C144.501 563.678 144.451 563.528 144.365 563.428C144.279 563.313 144.15 563.249 143.979 563.234C143.821 563.206 143.592 563.191 143.291 563.191V562.332C143.807 562.26 144.258 562.153 144.645 562.01C145.031 561.852 145.396 561.616 145.74 561.301H146.922ZM169.975 565.812H163.98V566.221C163.98 566.35 163.98 566.493 163.98 566.65C163.98 566.808 163.988 566.987 164.002 567.188C164.031 567.703 164.117 568.176 164.26 568.605C164.417 569.035 164.618 569.408 164.861 569.723C165.105 570.038 165.391 570.288 165.721 570.475C166.064 570.646 166.444 570.732 166.859 570.732C167.432 570.732 167.948 570.589 168.406 570.303C168.879 570.002 169.344 569.579 169.803 569.035L170.77 569.637C170.311 570.439 169.717 571.098 168.986 571.613C168.256 572.129 167.411 572.387 166.451 572.387C165.778 572.387 165.155 572.251 164.582 571.979C164.009 571.706 163.515 571.334 163.1 570.861C162.684 570.389 162.355 569.837 162.111 569.207C161.882 568.577 161.768 567.904 161.768 567.188C161.768 566.271 161.882 565.447 162.111 564.717C162.355 563.986 162.691 563.37 163.121 562.869C163.551 562.354 164.052 561.96 164.625 561.688C165.212 561.415 165.85 561.279 166.537 561.279C167.01 561.279 167.482 561.358 167.955 561.516C168.442 561.673 168.872 561.91 169.244 562.225C169.617 562.525 169.924 562.912 170.168 563.385C170.411 563.857 170.533 564.409 170.533 565.039C170.533 565.326 170.512 565.526 170.469 565.641C170.44 565.755 170.275 565.812 169.975 565.812ZM164.152 564.652H167.891C168.062 564.652 168.156 564.638 168.17 564.609C168.199 564.581 168.213 564.488 168.213 564.33C168.213 564.115 168.17 563.9 168.084 563.686C168.012 563.456 167.898 563.249 167.74 563.062C167.583 562.876 167.389 562.726 167.16 562.611C166.945 562.497 166.702 562.439 166.43 562.439C165.785 562.439 165.27 562.647 164.883 563.062C164.51 563.478 164.267 564.008 164.152 564.652ZM174.83 563.256V569.057C174.83 569.443 174.852 569.758 174.895 570.002C174.938 570.245 174.995 570.439 175.066 570.582C175.152 570.711 175.245 570.804 175.346 570.861C175.446 570.904 175.553 570.926 175.668 570.926C175.754 570.926 175.868 570.904 176.012 570.861C176.169 570.818 176.334 570.761 176.506 570.689C176.692 570.604 176.885 570.496 177.086 570.367C177.286 570.238 177.48 570.088 177.666 569.916L178.289 570.818C177.831 571.291 177.322 571.671 176.764 571.957C176.219 572.243 175.639 572.387 175.023 572.387C174.25 572.387 173.648 572.186 173.219 571.785C172.789 571.37 172.574 570.818 172.574 570.131V563.256H171.092V562.525C171.837 562.325 172.381 561.974 172.725 561.473C173.068 560.971 173.319 560.248 173.477 559.303H174.83V561.881H178.203V563.256H174.83ZM193.93 569.121L194.789 569.809C194.173 570.611 193.464 571.241 192.662 571.699C191.874 572.158 191.008 572.387 190.062 572.387C189.418 572.387 188.809 572.243 188.236 571.957C187.678 571.671 187.184 571.291 186.754 570.818C186.324 570.346 185.98 569.816 185.723 569.229C185.479 568.627 185.357 568.018 185.357 567.402C185.357 566.543 185.501 565.741 185.787 564.996C186.074 564.251 186.475 563.607 186.99 563.062C187.506 562.504 188.115 562.067 188.816 561.752C189.533 561.437 190.313 561.279 191.158 561.279C191.473 561.279 191.817 561.315 192.189 561.387C192.576 561.444 192.934 561.544 193.264 561.688C193.593 561.831 193.865 562.017 194.08 562.246C194.295 562.475 194.402 562.747 194.402 563.062C194.402 563.349 194.316 563.607 194.145 563.836C193.987 564.065 193.743 564.18 193.414 564.18C193.156 564.18 192.913 564.115 192.684 563.986C192.454 563.857 192.247 563.614 192.061 563.256C191.932 562.998 191.731 562.798 191.459 562.654C191.187 562.511 190.8 562.439 190.299 562.439C189.869 562.439 189.482 562.568 189.139 562.826C188.795 563.084 188.508 563.413 188.279 563.814C188.05 564.201 187.871 564.631 187.742 565.104C187.628 565.562 187.57 565.992 187.57 566.393C187.57 566.951 187.642 567.488 187.785 568.004C187.928 568.52 188.143 568.978 188.43 569.379C188.73 569.766 189.096 570.081 189.525 570.324C189.955 570.568 190.456 570.689 191.029 570.689C191.574 570.689 192.075 570.546 192.533 570.26C193.006 569.959 193.471 569.579 193.93 569.121ZM206.734 566.779C206.734 567.538 206.591 568.262 206.305 568.949C206.033 569.622 205.646 570.217 205.145 570.732C204.658 571.234 204.085 571.635 203.426 571.936C202.767 572.236 202.065 572.387 201.32 572.387C200.547 572.387 199.816 572.258 199.129 572C198.441 571.728 197.84 571.355 197.324 570.883C196.823 570.396 196.422 569.816 196.121 569.143C195.82 568.469 195.67 567.717 195.67 566.887C195.67 566.142 195.799 565.433 196.057 564.76C196.329 564.072 196.701 563.471 197.174 562.955C197.646 562.439 198.205 562.031 198.85 561.73C199.508 561.43 200.225 561.279 200.998 561.279C201.814 561.279 202.574 561.415 203.275 561.688C203.977 561.945 204.586 562.318 205.102 562.805C205.617 563.277 206.018 563.857 206.305 564.545C206.591 565.218 206.734 565.963 206.734 566.779ZM204.178 567.037C204.178 566.536 204.12 566.006 204.006 565.447C203.891 564.889 203.705 564.38 203.447 563.922C203.204 563.449 202.889 563.062 202.502 562.762C202.115 562.461 201.65 562.311 201.105 562.311C200.59 562.311 200.146 562.447 199.773 562.719C199.401 562.991 199.1 563.335 198.871 563.75C198.642 564.165 198.47 564.631 198.355 565.146C198.255 565.662 198.205 566.163 198.205 566.65C198.205 567.109 198.262 567.61 198.377 568.154C198.492 568.699 198.671 569.207 198.914 569.68C199.158 570.152 199.473 570.546 199.859 570.861C200.26 571.176 200.733 571.334 201.277 571.334C201.793 571.334 202.23 571.198 202.588 570.926C202.96 570.654 203.261 570.31 203.49 569.895C203.734 569.465 203.906 568.999 204.006 568.498C204.12 567.997 204.178 567.51 204.178 567.037ZM211.547 561.301C211.504 561.673 211.475 562.003 211.461 562.289C211.447 562.561 211.439 562.783 211.439 562.955C211.726 562.697 211.998 562.468 212.256 562.268C212.528 562.067 212.793 561.902 213.051 561.773C213.309 561.63 213.609 561.516 213.953 561.43C214.297 561.329 214.662 561.279 215.049 561.279C215.579 561.279 216.023 561.372 216.381 561.559C216.753 561.73 217.047 561.974 217.262 562.289C217.491 562.59 217.648 562.948 217.734 563.363C217.835 563.764 217.885 564.194 217.885 564.652V569.615C217.885 569.902 217.899 570.138 217.928 570.324C217.971 570.51 218.042 570.661 218.143 570.775C218.257 570.876 218.415 570.947 218.615 570.99C218.816 571.019 219.088 571.033 219.432 571.033V572.043C219.174 572.043 218.801 572.036 218.314 572.021C217.827 572.021 217.319 572.021 216.789 572.021C216.259 572.036 215.751 572.043 215.264 572.043C214.777 572.057 214.404 572.072 214.146 572.086V571.033C214.476 571.033 214.734 571.019 214.92 570.99C215.12 570.947 215.271 570.876 215.371 570.775C215.486 570.661 215.557 570.518 215.586 570.346C215.615 570.16 215.629 569.923 215.629 569.637V564.674C215.629 563.972 215.493 563.499 215.221 563.256C214.963 563.012 214.54 562.891 213.953 562.891C213.796 562.891 213.602 562.934 213.373 563.02C213.158 563.105 212.929 563.213 212.686 563.342C212.442 563.456 212.206 563.585 211.977 563.729C211.762 563.872 211.583 564.008 211.439 564.137V569.637C211.439 569.923 211.454 570.16 211.482 570.346C211.525 570.518 211.597 570.661 211.697 570.775C211.812 570.876 211.969 570.947 212.17 570.99C212.37 571.019 212.643 571.033 212.986 571.033V572.086C212.729 572.072 212.349 572.057 211.848 572.043C211.361 572.029 210.852 572.021 210.322 572.021C209.792 572.021 209.284 572.029 208.797 572.043C208.31 572.057 207.938 572.072 207.68 572.086V571.033C208.009 571.033 208.274 571.019 208.475 570.99C208.675 570.947 208.826 570.876 208.926 570.775C209.04 570.661 209.112 570.51 209.141 570.324C209.169 570.138 209.184 569.902 209.184 569.615V564.695C209.184 564.352 209.176 564.079 209.162 563.879C209.148 563.678 209.098 563.528 209.012 563.428C208.926 563.313 208.797 563.249 208.625 563.234C208.467 563.206 208.238 563.191 207.938 563.191V562.332C208.453 562.26 208.897 562.153 209.27 562.01C209.656 561.852 210.029 561.616 210.387 561.301H211.547ZM220.334 568.562H221.602C221.659 568.921 221.738 569.264 221.838 569.594C221.952 569.923 222.096 570.21 222.268 570.453C222.439 570.697 222.647 570.897 222.891 571.055C223.148 571.198 223.449 571.27 223.793 571.27C224.409 571.27 224.824 571.126 225.039 570.84C225.268 570.553 225.383 570.224 225.383 569.852C225.383 569.551 225.333 569.293 225.232 569.078C225.132 568.863 224.989 568.677 224.803 568.52C224.617 568.348 224.395 568.197 224.137 568.068C223.893 567.925 223.621 567.768 223.32 567.596C222.504 567.18 221.831 566.722 221.301 566.221C220.785 565.719 220.527 565.096 220.527 564.352C220.527 563.965 220.606 563.592 220.764 563.234C220.936 562.862 221.179 562.533 221.494 562.246C221.809 561.96 222.196 561.73 222.654 561.559C223.113 561.372 223.628 561.279 224.201 561.279C224.66 561.279 225.111 561.337 225.555 561.451C226.013 561.566 226.507 561.766 227.037 562.053L227.188 564.674H225.984C225.87 563.843 225.648 563.263 225.318 562.934C224.989 562.604 224.552 562.439 224.008 562.439C223.592 562.439 223.234 562.554 222.934 562.783C222.633 562.998 222.482 563.313 222.482 563.729C222.482 564.029 222.554 564.287 222.697 564.502C222.84 564.717 223.027 564.917 223.256 565.104C223.499 565.275 223.771 565.44 224.072 565.598C224.373 565.755 224.688 565.913 225.018 566.07C225.333 566.214 225.648 566.364 225.963 566.521C226.278 566.679 226.557 566.872 226.801 567.102C227.059 567.331 227.266 567.61 227.424 567.939C227.581 568.255 227.66 568.648 227.66 569.121C227.66 569.522 227.581 569.923 227.424 570.324C227.266 570.711 227.023 571.062 226.693 571.377C226.364 571.678 225.949 571.921 225.447 572.107C224.946 572.294 224.344 572.387 223.643 572.387C223.127 572.387 222.611 572.315 222.096 572.172C221.58 572.029 221.1 571.814 220.656 571.527L220.334 568.562ZM236.963 565.812H230.969V566.221C230.969 566.35 230.969 566.493 230.969 566.65C230.969 566.808 230.976 566.987 230.99 567.188C231.019 567.703 231.105 568.176 231.248 568.605C231.406 569.035 231.606 569.408 231.85 569.723C232.093 570.038 232.38 570.288 232.709 570.475C233.053 570.646 233.432 570.732 233.848 570.732C234.421 570.732 234.936 570.589 235.395 570.303C235.867 570.002 236.333 569.579 236.791 569.035L237.758 569.637C237.299 570.439 236.705 571.098 235.975 571.613C235.244 572.129 234.399 572.387 233.439 572.387C232.766 572.387 232.143 572.251 231.57 571.979C230.997 571.706 230.503 571.334 230.088 570.861C229.673 570.389 229.343 569.837 229.1 569.207C228.87 568.577 228.756 567.904 228.756 567.188C228.756 566.271 228.87 565.447 229.1 564.717C229.343 563.986 229.68 563.37 230.109 562.869C230.539 562.354 231.04 561.96 231.613 561.688C232.201 561.415 232.838 561.279 233.525 561.279C233.998 561.279 234.471 561.358 234.943 561.516C235.43 561.673 235.86 561.91 236.232 562.225C236.605 562.525 236.913 562.912 237.156 563.385C237.4 563.857 237.521 564.409 237.521 565.039C237.521 565.326 237.5 565.526 237.457 565.641C237.428 565.755 237.264 565.812 236.963 565.812ZM231.141 564.652H234.879C235.051 564.652 235.144 564.638 235.158 564.609C235.187 564.581 235.201 564.488 235.201 564.33C235.201 564.115 235.158 563.9 235.072 563.686C235.001 563.456 234.886 563.249 234.729 563.062C234.571 562.876 234.378 562.726 234.148 562.611C233.934 562.497 233.69 562.439 233.418 562.439C232.773 562.439 232.258 562.647 231.871 563.062C231.499 563.478 231.255 564.008 231.141 564.652ZM247.104 569.121L247.963 569.809C247.347 570.611 246.638 571.241 245.836 571.699C245.048 572.158 244.182 572.387 243.236 572.387C242.592 572.387 241.983 572.243 241.41 571.957C240.852 571.671 240.357 571.291 239.928 570.818C239.498 570.346 239.154 569.816 238.896 569.229C238.653 568.627 238.531 568.018 238.531 567.402C238.531 566.543 238.674 565.741 238.961 564.996C239.247 564.251 239.648 563.607 240.164 563.062C240.68 562.504 241.288 562.067 241.99 561.752C242.706 561.437 243.487 561.279 244.332 561.279C244.647 561.279 244.991 561.315 245.363 561.387C245.75 561.444 246.108 561.544 246.438 561.688C246.767 561.831 247.039 562.017 247.254 562.246C247.469 562.475 247.576 562.747 247.576 563.062C247.576 563.349 247.49 563.607 247.318 563.836C247.161 564.065 246.917 564.18 246.588 564.18C246.33 564.18 246.087 564.115 245.857 563.986C245.628 563.857 245.421 563.614 245.234 563.256C245.105 562.998 244.905 562.798 244.633 562.654C244.361 562.511 243.974 562.439 243.473 562.439C243.043 562.439 242.656 562.568 242.312 562.826C241.969 563.084 241.682 563.413 241.453 563.814C241.224 564.201 241.045 564.631 240.916 565.104C240.801 565.562 240.744 565.992 240.744 566.393C240.744 566.951 240.816 567.488 240.959 568.004C241.102 568.52 241.317 568.978 241.604 569.379C241.904 569.766 242.27 570.081 242.699 570.324C243.129 570.568 243.63 570.689 244.203 570.689C244.747 570.689 245.249 570.546 245.707 570.26C246.18 569.959 246.645 569.579 247.104 569.121ZM252.023 563.256V569.057C252.023 569.443 252.045 569.758 252.088 570.002C252.131 570.245 252.188 570.439 252.26 570.582C252.346 570.711 252.439 570.804 252.539 570.861C252.639 570.904 252.747 570.926 252.861 570.926C252.947 570.926 253.062 570.904 253.205 570.861C253.363 570.818 253.527 570.761 253.699 570.689C253.885 570.604 254.079 570.496 254.279 570.367C254.48 570.238 254.673 570.088 254.859 569.916L255.482 570.818C255.024 571.291 254.516 571.671 253.957 571.957C253.413 572.243 252.833 572.387 252.217 572.387C251.443 572.387 250.842 572.186 250.412 571.785C249.982 571.37 249.768 570.818 249.768 570.131V563.256H248.285V562.525C249.03 562.325 249.574 561.974 249.918 561.473C250.262 560.971 250.512 560.248 250.67 559.303H252.023V561.881H255.396V563.256H252.023ZM264.162 565.812H258.168V566.221C258.168 566.35 258.168 566.493 258.168 566.65C258.168 566.808 258.175 566.987 258.189 567.188C258.218 567.703 258.304 568.176 258.447 568.605C258.605 569.035 258.805 569.408 259.049 569.723C259.292 570.038 259.579 570.288 259.908 570.475C260.252 570.646 260.632 570.732 261.047 570.732C261.62 570.732 262.135 570.589 262.594 570.303C263.066 570.002 263.532 569.579 263.99 569.035L264.957 569.637C264.499 570.439 263.904 571.098 263.174 571.613C262.443 572.129 261.598 572.387 260.639 572.387C259.965 572.387 259.342 572.251 258.77 571.979C258.197 571.706 257.702 571.334 257.287 570.861C256.872 570.389 256.542 569.837 256.299 569.207C256.07 568.577 255.955 567.904 255.955 567.188C255.955 566.271 256.07 565.447 256.299 564.717C256.542 563.986 256.879 563.37 257.309 562.869C257.738 562.354 258.24 561.96 258.812 561.688C259.4 561.415 260.037 561.279 260.725 561.279C261.197 561.279 261.67 561.358 262.143 561.516C262.63 561.673 263.059 561.91 263.432 562.225C263.804 562.525 264.112 562.912 264.355 563.385C264.599 563.857 264.721 564.409 264.721 565.039C264.721 565.326 264.699 565.526 264.656 565.641C264.628 565.755 264.463 565.812 264.162 565.812ZM258.34 564.652H262.078C262.25 564.652 262.343 564.638 262.357 564.609C262.386 564.581 262.4 564.488 262.4 564.33C262.4 564.115 262.357 563.9 262.271 563.686C262.2 563.456 262.085 563.249 261.928 563.062C261.77 562.876 261.577 562.726 261.348 562.611C261.133 562.497 260.889 562.439 260.617 562.439C259.973 562.439 259.457 562.647 259.07 563.062C258.698 563.478 258.454 564.008 258.34 564.652ZM269.018 563.256V569.057C269.018 569.443 269.039 569.758 269.082 570.002C269.125 570.245 269.182 570.439 269.254 570.582C269.34 570.711 269.433 570.804 269.533 570.861C269.633 570.904 269.741 570.926 269.855 570.926C269.941 570.926 270.056 570.904 270.199 570.861C270.357 570.818 270.521 570.761 270.693 570.689C270.88 570.604 271.073 570.496 271.273 570.367C271.474 570.238 271.667 570.088 271.854 569.916L272.477 570.818C272.018 571.291 271.51 571.671 270.951 571.957C270.407 572.243 269.827 572.387 269.211 572.387C268.438 572.387 267.836 572.186 267.406 571.785C266.977 571.37 266.762 570.818 266.762 570.131V563.256H265.279V562.525C266.024 562.325 266.568 561.974 266.912 561.473C267.256 560.971 267.507 560.248 267.664 559.303H269.018V561.881H272.391V563.256H269.018ZM280.641 572.043V570.732C280.211 571.205 279.695 571.592 279.094 571.893C278.492 572.193 277.762 572.358 276.902 572.387C276.587 572.387 276.265 572.329 275.936 572.215C275.62 572.115 275.334 571.95 275.076 571.721C274.818 571.477 274.611 571.176 274.453 570.818C274.296 570.46 274.217 570.031 274.217 569.529V563.729C274.217 563.499 274.202 563.32 274.174 563.191C274.16 563.048 274.102 562.941 274.002 562.869C273.916 562.783 273.78 562.733 273.594 562.719C273.422 562.69 273.178 562.661 272.863 562.633V561.795C273.35 561.781 273.916 561.759 274.561 561.73C275.205 561.688 275.871 561.637 276.559 561.58C276.53 561.91 276.508 562.282 276.494 562.697C276.48 563.113 276.473 563.442 276.473 563.686V568.326C276.473 568.87 276.494 569.307 276.537 569.637C276.594 569.952 276.673 570.195 276.773 570.367C276.888 570.539 277.024 570.654 277.182 570.711C277.354 570.768 277.561 570.797 277.805 570.797C278.22 570.797 278.7 570.675 279.244 570.432C279.788 570.188 280.261 569.866 280.662 569.465V563.729C280.662 563.499 280.641 563.32 280.598 563.191C280.555 563.062 280.476 562.962 280.361 562.891C280.247 562.805 280.089 562.747 279.889 562.719C279.688 562.69 279.423 562.661 279.094 562.633V561.795C279.581 561.781 280.182 561.759 280.898 561.73C281.615 561.688 282.316 561.637 283.004 561.58C282.975 561.91 282.954 562.282 282.939 562.697C282.925 563.113 282.918 563.442 282.918 563.686V570.152C282.918 570.339 282.925 570.489 282.939 570.604C282.968 570.704 283.025 570.775 283.111 570.818C283.212 570.861 283.362 570.883 283.562 570.883C283.763 570.868 284.042 570.847 284.4 570.818V571.678C284.229 571.721 284.021 571.771 283.777 571.828C283.534 571.871 283.276 571.928 283.004 572C282.746 572.057 282.488 572.122 282.23 572.193C281.973 572.265 281.743 572.337 281.543 572.408C281.299 572.508 281.085 572.494 280.898 572.365C280.727 572.236 280.641 572.129 280.641 572.043ZM288.934 563.191C289.163 562.862 289.363 562.597 289.535 562.396C289.707 562.182 289.886 561.995 290.072 561.838C290.273 561.68 290.502 561.551 290.76 561.451C291.032 561.337 291.297 561.279 291.555 561.279C291.727 561.279 291.906 561.308 292.092 561.365C292.292 561.423 292.471 561.508 292.629 561.623C292.786 561.738 292.915 561.888 293.016 562.074C293.13 562.246 293.188 562.454 293.188 562.697C293.188 563.055 293.044 563.363 292.758 563.621C292.471 563.879 292.149 564.008 291.791 564.008C291.533 564.008 291.326 563.979 291.168 563.922C291.01 563.865 290.874 563.8 290.76 563.729C290.66 563.657 290.574 563.592 290.502 563.535C290.43 563.478 290.352 563.449 290.266 563.449C290.151 563.449 290.015 563.492 289.857 563.578C289.714 563.664 289.571 563.786 289.428 563.943C289.299 564.087 289.184 564.273 289.084 564.502C288.984 564.717 288.934 564.953 288.934 565.211V569.615C288.934 569.945 288.948 570.202 288.977 570.389C289.02 570.575 289.12 570.718 289.277 570.818C289.435 570.919 289.671 570.983 289.986 571.012C290.301 571.026 290.731 571.033 291.275 571.033V572.086C290.903 572.072 290.438 572.057 289.879 572.043C289.32 572.029 288.74 572.021 288.139 572.021C287.551 572.021 286.971 572.021 286.398 572.021C285.84 572.036 285.367 572.057 284.98 572.086V571.033C285.382 571.033 285.697 571.026 285.926 571.012C286.155 570.983 286.327 570.926 286.441 570.84C286.556 570.754 286.62 570.618 286.635 570.432C286.663 570.231 286.678 569.959 286.678 569.615V564.695C286.678 564.352 286.671 564.079 286.656 563.879C286.642 563.678 286.592 563.528 286.506 563.428C286.42 563.313 286.291 563.249 286.119 563.234C285.962 563.206 285.732 563.191 285.432 563.191V562.332C285.947 562.26 286.398 562.153 286.785 562.01C287.172 561.852 287.537 561.616 287.881 561.301H289.062C289.048 561.487 289.034 561.673 289.02 561.859C289.005 562.031 288.991 562.21 288.977 562.396C288.962 562.583 288.948 562.747 288.934 562.891C288.934 563.02 288.934 563.12 288.934 563.191ZM296.109 569.873C296.582 569.873 296.983 570.038 297.312 570.367C297.642 570.682 297.807 571.04 297.807 571.441C297.807 571.857 297.642 572.222 297.312 572.537C296.983 572.867 296.582 573.031 296.109 573.031C295.88 573.031 295.658 572.988 295.443 572.902C295.243 572.816 295.064 572.695 294.906 572.537C294.763 572.394 294.641 572.229 294.541 572.043C294.455 571.857 294.412 571.656 294.412 571.441C294.412 571.241 294.455 571.048 294.541 570.861C294.641 570.675 294.763 570.51 294.906 570.367C295.064 570.21 295.243 570.088 295.443 570.002C295.658 569.916 295.88 569.873 296.109 569.873Z" fill="black"/>
</svg>
