<svg width="22" height="22" viewBox="0 0 22 22" fill="none" xmlns="http://www.w3.org/2000/svg">
<rect x="1.77905" y="1.61731" width="17.952" height="18.2754" fill="black"/>
<path fill-rule="evenodd" clip-rule="evenodd" d="M2.68005e-07 1.81061C2.68005e-07 1.33041 0.19076 0.869871 0.530315 0.530317C0.869869 0.190762 1.3304 2.41379e-06 1.81061 2.41379e-06H19.8595C20.0975 -0.000386257 20.3332 0.0461669 20.5532 0.136996C20.7731 0.227826 20.973 0.361148 21.1414 0.52933C21.3098 0.697512 21.4433 0.897251 21.5344 1.11711C21.6254 1.33697 21.6722 1.57263 21.6721 1.81061V19.8595C21.6724 20.0976 21.6257 20.3333 21.5348 20.5533C21.4438 20.7732 21.3104 20.9731 21.1422 21.1415C20.9739 21.3098 20.7741 21.4433 20.5542 21.5344C20.3343 21.6254 20.0985 21.6722 19.8605 21.6721H1.81061C1.57275 21.6721 1.33723 21.6253 1.11749 21.5342C0.897753 21.4431 0.69811 21.3097 0.529966 21.1415C0.361823 20.9732 0.228475 20.7735 0.137542 20.5537C0.0466081 20.3339 -0.000129142 20.0984 2.68005e-07 19.8605V1.81061ZM8.57822 8.26299H11.5128V9.73669C11.9364 8.88951 13.02 8.12705 14.6484 8.12705C17.7702 8.12705 18.51 9.81452 18.51 12.9107V18.6459H15.3508V13.616C15.3508 11.8527 14.9272 10.8577 13.8514 10.8577C12.359 10.8577 11.7384 11.9305 11.7384 13.616V18.6459H8.57822V13.4544V8.26299ZM3.16019 18.5109H6.32038V8.12705H3.16019V18.51V18.5109ZM6.77254 4.74028C6.7785 5.01086 6.73035 5.27991 6.63092 5.53163C6.53149 5.78335 6.38279 6.01267 6.19353 6.20614C6.00427 6.39961 5.77828 6.55333 5.52881 6.65827C5.27934 6.76322 5.01142 6.81728 4.74078 6.81728C4.47013 6.81728 4.20221 6.76322 3.95274 6.65827C3.70327 6.55333 3.47728 6.39961 3.28802 6.20614C3.09877 6.01267 2.95006 5.78335 2.85063 5.53163C2.7512 5.27991 2.70306 5.01086 2.70902 4.74028C2.72071 4.20918 2.93991 3.70376 3.31966 3.33227C3.69942 2.96079 4.20954 2.75277 4.74078 2.75277C5.27202 2.75277 5.78214 2.96079 6.16189 3.33227C6.54165 3.70376 6.76084 4.20918 6.77254 4.74028Z" fill="white"/>
</svg>
