<svg width="614" height="85" viewBox="0 0 614 85" fill="none" xmlns="http://www.w3.org/2000/svg">
<path d="M0.6 67V0.849999H10.32V58H23.19V67H0.6ZM55.043 67.72C51.413 67.72 48.548 66.475 46.448 63.985C44.378 61.465 43.343 58.39 43.343 54.76V30.01C43.343 26.17 44.378 23.05 46.448 20.65C48.518 18.25 51.413 17.05 55.133 17.05C57.563 17.05 59.648 17.605 61.388 18.715C63.158 19.825 64.508 21.34 65.438 23.26C66.368 25.15 66.833 27.31 66.833 29.74V44.05H51.803V54.76C51.803 55.99 52.073 57.13 52.613 58.18C53.183 59.2 54.023 59.71 55.133 59.71C56.303 59.71 57.128 59.23 57.608 58.27C58.118 57.31 58.373 56.14 58.373 54.76V49.36H66.833V55.03C66.833 58.84 65.798 61.915 63.728 64.255C61.688 66.565 58.793 67.72 55.043 67.72ZM51.803 36.94H58.373V30.01C58.373 28.66 58.133 27.49 57.653 26.5C57.203 25.48 56.363 24.97 55.133 24.97C53.993 24.97 53.153 25.495 52.613 26.545C52.073 27.565 51.803 28.72 51.803 30.01V36.94ZM95.4888 67.72C93.3888 67.72 91.5738 66.655 90.0438 64.525C88.5138 62.395 87.7488 59.14 87.7488 54.76C87.7488 50.53 88.6488 47.125 90.4488 44.545C92.2788 41.965 95.0088 39.73 98.6388 37.84C99.7788 37.24 100.739 36.7 101.519 36.22C102.299 35.74 102.779 35.29 102.959 34.87V29.47C102.959 28.24 102.809 27.19 102.509 26.32C102.239 25.42 101.549 24.97 100.439 24.97C99.4188 24.97 98.7288 25.45 98.3688 26.41C98.0088 27.34 97.8288 28.51 97.8288 29.92V32.26H88.7388V30.19C88.7388 27.49 89.2638 25.165 90.3138 23.215C91.3938 21.235 92.8488 19.72 94.6788 18.67C96.5388 17.59 98.6388 17.05 100.979 17.05C103.229 17.05 105.179 17.575 106.829 18.625C108.479 19.645 109.754 21.07 110.654 22.9C111.584 24.7 112.049 26.77 112.049 29.11V58.45C112.049 60.64 112.109 62.35 112.229 63.58C112.349 64.78 112.499 65.92 112.679 67H103.769C103.379 66.52 103.139 65.815 103.049 64.885C102.989 63.955 102.959 63.34 102.959 63.04H102.329C101.579 64.42 100.619 65.545 99.4488 66.415C98.3088 67.285 96.9888 67.72 95.4888 67.72ZM99.1788 58.81C100.229 58.81 101.114 58.45 101.834 57.73C102.584 57.01 102.959 56.23 102.959 55.39V43.69C100.769 44.62 99.1638 46.03 98.1438 47.92C97.1538 49.78 96.6588 51.88 96.6588 54.22C96.6588 55.24 96.8538 56.26 97.2438 57.28C97.6338 58.3 98.2788 58.81 99.1788 58.81ZM135.164 67V17.77H144.254V23.26C144.434 22.06 144.989 20.995 145.919 20.065C146.849 19.135 147.974 18.4 149.294 17.86C150.644 17.32 151.994 17.05 153.344 17.05V27.13C152.954 26.98 152.534 26.89 152.084 26.86C151.664 26.8 151.244 26.77 150.824 26.77C148.844 26.77 147.254 27.31 146.054 28.39C144.854 29.47 144.254 30.94 144.254 32.8V67H135.164ZM174.521 67V17.77H183.611V21.91C184.691 20.86 185.906 19.795 187.256 18.715C188.606 17.605 189.851 17.05 190.991 17.05C192.491 17.05 193.751 17.53 194.771 18.49C195.791 19.45 196.556 20.665 197.066 22.135C197.576 23.605 197.831 25.12 197.831 26.68V67H188.741V28.48C188.741 27.52 188.576 26.845 188.246 26.455C187.916 26.065 187.361 25.87 186.581 25.87C185.921 25.87 185.351 26.11 184.871 26.59C184.421 27.04 184.001 27.58 183.611 28.21V67H174.521ZM251.507 67L261.497 0.849999H273.377L283.367 67H273.917L272.117 53.5H262.757L260.957 67H251.507ZM264.107 43.24H270.767L267.977 21.01L267.707 17.5H267.167L266.897 21.01L264.107 43.24ZM305.162 67V17.77H314.252V21.91C315.332 20.86 316.547 19.795 317.897 18.715C319.247 17.605 320.492 17.05 321.632 17.05C323.132 17.05 324.392 17.53 325.412 18.49C326.432 19.45 327.197 20.665 327.707 22.135C328.217 23.605 328.472 25.12 328.472 26.68V67H319.382V28.48C319.382 27.52 319.217 26.845 318.887 26.455C318.557 26.065 318.002 25.87 317.222 25.87C316.562 25.87 315.992 26.11 315.512 26.59C315.062 27.04 314.642 27.58 314.252 28.21V67H305.162ZM357.506 67.72C356.006 67.72 354.731 67.255 353.681 66.325C352.631 65.395 351.836 64.195 351.296 62.725C350.756 61.225 350.486 59.68 350.486 58.09V26.68C350.486 25.09 350.741 23.56 351.251 22.09C351.791 20.62 352.586 19.42 353.636 18.49C354.686 17.53 355.976 17.05 357.506 17.05C358.646 17.05 359.846 17.44 361.106 18.22C362.366 19 363.566 19.93 364.706 21.01V0.849999H373.796V67H364.706V63.76C363.506 64.81 362.321 65.74 361.151 66.55C359.981 67.33 358.766 67.72 357.506 67.72ZM361.826 59.17C362.516 59.17 363.161 58.885 363.761 58.315C364.391 57.745 364.706 57.04 364.706 56.2V28.57C364.706 27.85 364.391 27.175 363.761 26.545C363.161 25.915 362.516 25.6 361.826 25.6C361.166 25.6 360.626 25.885 360.206 26.455C359.786 26.995 359.576 27.7 359.576 28.57V56.2C359.576 57.04 359.786 57.745 360.206 58.315C360.626 58.885 361.166 59.17 361.826 59.17ZM431 67V0.849999H440.72C444.41 0.849999 447.485 1.66 449.945 3.28C452.435 4.9 454.295 7.195 455.525 10.165C456.755 13.135 457.37 16.63 457.37 20.65C457.37 24.67 456.725 28.135 455.435 31.045C454.145 33.955 452.255 36.235 449.765 37.885C447.305 39.505 444.29 40.39 440.72 40.54V67H431ZM440.72 30.64C442.43 30.64 443.78 30.31 444.77 29.65C445.76 28.96 446.465 27.88 446.885 26.41C447.335 24.94 447.56 23.05 447.56 20.74C447.56 18.4 447.335 16.495 446.885 15.025C446.465 13.555 445.745 12.475 444.725 11.785C443.735 11.095 442.4 10.75 440.72 10.75V30.64ZM479.741 67V0.849999H488.831V67H479.741ZM518.858 67.72C516.758 67.72 514.943 66.655 513.413 64.525C511.883 62.395 511.118 59.14 511.118 54.76C511.118 50.53 512.018 47.125 513.818 44.545C515.648 41.965 518.378 39.73 522.008 37.84C523.148 37.24 524.108 36.7 524.888 36.22C525.668 35.74 526.148 35.29 526.328 34.87V29.47C526.328 28.24 526.178 27.19 525.878 26.32C525.608 25.42 524.918 24.97 523.808 24.97C522.788 24.97 522.098 25.45 521.738 26.41C521.378 27.34 521.198 28.51 521.198 29.92V32.26H512.108V30.19C512.108 27.49 512.633 25.165 513.683 23.215C514.763 21.235 516.218 19.72 518.048 18.67C519.908 17.59 522.008 17.05 524.348 17.05C526.598 17.05 528.548 17.575 530.198 18.625C531.848 19.645 533.123 21.07 534.023 22.9C534.953 24.7 535.418 26.77 535.418 29.11V58.45C535.418 60.64 535.478 62.35 535.598 63.58C535.718 64.78 535.868 65.92 536.048 67H527.138C526.748 66.52 526.508 65.815 526.418 64.885C526.358 63.955 526.328 63.34 526.328 63.04H525.698C524.948 64.42 523.988 65.545 522.818 66.415C521.678 67.285 520.358 67.72 518.858 67.72ZM522.548 58.81C523.598 58.81 524.483 58.45 525.203 57.73C525.953 57.01 526.328 56.23 526.328 55.39V43.69C524.138 44.62 522.533 46.03 521.513 47.92C520.523 49.78 520.028 51.88 520.028 54.22C520.028 55.24 520.223 56.26 520.613 57.28C521.003 58.3 521.648 58.81 522.548 58.81ZM560.288 84.64C559.898 84.64 559.433 84.625 558.893 84.595C558.353 84.565 557.828 84.505 557.318 84.415V76.36C557.408 76.39 557.648 76.42 558.038 76.45C558.428 76.51 558.683 76.54 558.803 76.54C560.483 76.54 561.833 76.09 562.853 75.19C563.903 74.29 564.638 73.09 565.058 71.59C565.208 71.14 565.283 70.615 565.283 70.015C565.313 69.415 565.328 68.89 565.328 68.44L556.958 17.77H565.868L569.468 48.46L569.648 51.88H570.008L570.188 48.46L573.788 17.77H582.698L573.968 70.69C573.638 73.33 572.888 75.7 571.718 77.8C570.578 79.93 569.048 81.595 567.128 82.795C565.208 84.025 562.928 84.64 560.288 84.64ZM603.694 67V57.01H613.144V67H603.694Z" fill="white"/>
</svg>
