<svg width="401" height="85" viewBox="0 0 401 85" fill="none" xmlns="http://www.w3.org/2000/svg">
<path d="M10.08 67V10.84H0.9V0.849999H28.98V10.84H19.8V67H10.08ZM50.5828 67V17.77H59.6728V67H50.5828ZM50.5828 9.94V0.849999H59.6728V9.94H50.5828ZM82.6348 67V17.77H91.7248V21.91C92.8048 20.86 94.0198 19.795 95.3698 18.715C96.7198 17.605 97.9648 17.05 99.1048 17.05C100.605 17.05 101.865 17.53 102.885 18.49C103.905 19.45 104.67 20.665 105.18 22.135C105.69 23.605 105.945 25.12 105.945 26.68V67H96.8548V28.48C96.8548 27.52 96.6898 26.845 96.3598 26.455C96.0298 26.065 95.4748 25.87 94.6948 25.87C94.0348 25.87 93.4648 26.11 92.9848 26.59C92.5348 27.04 92.1148 27.58 91.7248 28.21V67H82.6348ZM130.163 84.64C129.773 84.64 129.308 84.625 128.768 84.595C128.228 84.565 127.703 84.505 127.193 84.415V76.36C127.283 76.39 127.523 76.42 127.913 76.45C128.303 76.51 128.558 76.54 128.678 76.54C130.358 76.54 131.708 76.09 132.728 75.19C133.778 74.29 134.513 73.09 134.933 71.59C135.083 71.14 135.158 70.615 135.158 70.015C135.188 69.415 135.203 68.89 135.203 68.44L126.833 17.77H135.743L139.343 48.46L139.523 51.88H139.883L140.063 48.46L143.663 17.77H152.573L143.843 70.69C143.513 73.33 142.763 75.7 141.593 77.8C140.453 79.93 138.923 81.595 137.003 82.795C135.083 84.025 132.803 84.64 130.163 84.64ZM219.225 67.72C216.525 67.72 214.2 67.09 212.25 65.83C210.33 64.57 208.845 62.86 207.795 60.7C206.775 58.54 206.265 56.11 206.265 53.41V14.44C206.265 11.71 206.775 9.28 207.795 7.15C208.845 4.99 210.33 3.28 212.25 2.01999C214.2 0.759996 216.525 0.129997 219.225 0.129997C221.925 0.129997 224.235 0.759996 226.155 2.01999C228.105 3.28 229.59 4.99 230.61 7.15C231.66 9.31 232.185 11.74 232.185 14.44V53.41C232.185 56.11 231.66 58.54 230.61 60.7C229.59 62.86 228.105 64.57 226.155 65.83C224.235 67.09 221.925 67.72 219.225 67.72ZM219.225 58.27C220.425 58.27 221.265 57.775 221.745 56.785C222.225 55.765 222.465 54.64 222.465 53.41V14.44C222.465 13.21 222.21 12.1 221.7 11.11C221.19 10.09 220.365 9.58 219.225 9.58C218.115 9.58 217.29 10.09 216.75 11.11C216.24 12.1 215.985 13.21 215.985 14.44V53.41C215.985 54.64 216.24 55.765 216.75 56.785C217.26 57.775 218.085 58.27 219.225 58.27ZM255.621 67V17.77H264.711V21.91C265.791 20.86 267.006 19.795 268.356 18.715C269.706 17.605 270.951 17.05 272.091 17.05C273.591 17.05 274.851 17.53 275.871 18.49C276.891 19.45 277.656 20.665 278.166 22.135C278.676 23.605 278.931 25.12 278.931 26.68V67H269.841V28.48C269.841 27.52 269.676 26.845 269.346 26.455C269.016 26.065 268.461 25.87 267.681 25.87C267.021 25.87 266.451 26.11 265.971 26.59C265.521 27.04 265.101 27.58 264.711 28.21V67H255.621ZM312.645 67.72C309.015 67.72 306.15 66.475 304.05 63.985C301.98 61.465 300.945 58.39 300.945 54.76V30.01C300.945 26.17 301.98 23.05 304.05 20.65C306.12 18.25 309.015 17.05 312.735 17.05C315.165 17.05 317.25 17.605 318.99 18.715C320.76 19.825 322.11 21.34 323.04 23.26C323.97 25.15 324.435 27.31 324.435 29.74V44.05H309.405V54.76C309.405 55.99 309.675 57.13 310.215 58.18C310.785 59.2 311.625 59.71 312.735 59.71C313.905 59.71 314.73 59.23 315.21 58.27C315.72 57.31 315.975 56.14 315.975 54.76V49.36H324.435V55.03C324.435 58.84 323.4 61.915 321.33 64.255C319.29 66.565 316.395 67.72 312.645 67.72ZM309.405 36.94H315.975V30.01C315.975 28.66 315.735 27.49 315.255 26.5C314.805 25.48 313.965 24.97 312.735 24.97C311.595 24.97 310.755 25.495 310.215 26.545C309.675 27.565 309.405 28.72 309.405 30.01V36.94ZM357.903 67.72C355.773 67.72 353.913 67.36 352.323 66.64C350.733 65.92 349.413 64.9 348.363 63.58C347.313 62.23 346.518 60.64 345.978 58.81C345.468 56.98 345.213 54.94 345.213 52.69H353.673C353.673 54.7 353.988 56.455 354.618 57.955C355.278 59.425 356.373 60.16 357.903 60.16C359.223 60.16 360.078 59.605 360.468 58.495C360.858 57.385 361.053 56.11 361.053 54.67C361.053 52.99 360.393 51.28 359.073 49.54C357.783 47.77 356.433 46.195 355.023 44.815C352.593 42.415 350.568 40.045 348.948 37.705C347.358 35.365 346.563 32.62 346.563 29.47C346.563 25.75 347.538 22.75 349.488 20.47C351.438 18.19 354.213 17.05 357.813 17.05C359.973 17.05 361.788 17.335 363.258 17.905C364.758 18.475 365.958 19.33 366.858 20.47C367.758 21.61 368.403 23.005 368.793 24.655C369.213 26.305 369.423 28.21 369.423 30.37H360.963C360.963 28.81 360.798 27.46 360.468 26.32C360.138 25.18 359.313 24.61 357.993 24.61C356.913 24.61 356.148 25.075 355.698 26.005C355.248 26.905 355.023 28.06 355.023 29.47C355.023 31.12 355.413 32.59 356.193 33.88C357.003 35.14 358.338 36.685 360.198 38.515C362.538 40.795 364.668 43.225 366.588 45.805C368.538 48.385 369.513 51.19 369.513 54.22C369.513 56.2 369.243 58.015 368.703 59.665C368.193 61.315 367.428 62.74 366.408 63.94C365.418 65.14 364.203 66.07 362.763 66.73C361.353 67.39 359.733 67.72 357.903 67.72ZM391.186 67V57.01H400.636V67H391.186Z" fill="white"/>
</svg>
