<svg width="308" height="67" viewBox="0 0 308 67" fill="none" xmlns="http://www.w3.org/2000/svg">
<path d="M10.08 67V10.84H0.9V0.849999H28.98V10.84H19.8V67H10.08ZM60.4828 67V0.849999H70.2028C76.0228 0.849999 80.3128 2.47 83.0728 5.71C85.8328 8.91999 87.2128 13.66 87.2128 19.93C87.2128 23.65 86.5528 26.875 85.2328 29.605C83.9428 32.305 82.3678 34.285 80.5078 35.545L87.1228 67H77.4028L71.9128 39.1H70.2028V67H60.4828ZM70.2028 30.1C72.0028 30.1 73.4278 29.71 74.4778 28.93C75.5278 28.12 76.2778 26.98 76.7278 25.51C77.1778 24.04 77.4028 22.3 77.4028 20.29C77.4028 17.14 76.8778 14.725 75.8278 13.045C74.8078 11.335 72.9328 10.48 70.2028 10.48V30.1ZM119.651 67V0.849999H141.881V10.84H129.371V28.66H138.371V38.38H129.371V57.01H141.881V67H119.651ZM176.094 67V0.849999H185.184L194.184 35.32L194.994 38.38H195.534V0.849999H204.444V67H196.254L186.354 32.53L185.544 29.47H185.004V67H176.094ZM238.602 67V0.849999H248.502C251.622 0.849999 254.262 1.36 256.422 2.38C258.582 3.4 260.322 5.14 261.642 7.6C262.962 10.06 263.907 13.435 264.477 17.725C265.077 22.015 265.377 27.43 265.377 33.97C265.377 40.54 265.077 45.97 264.477 50.26C263.907 54.52 262.962 57.88 261.642 60.34C260.322 62.77 258.582 64.495 256.422 65.515C254.262 66.505 251.622 67 248.502 67H238.602ZM248.322 57.28C250.722 57.28 252.417 56.335 253.407 54.445C254.397 52.555 254.997 49.855 255.207 46.345C255.417 42.835 255.522 38.665 255.522 33.835C255.522 28.945 255.417 24.775 255.207 21.325C254.997 17.845 254.382 15.19 253.362 13.36C252.372 11.5 250.692 10.57 248.322 10.57V57.28ZM297.828 67V57.01H307.278V67H297.828Z" fill="white"/>
</svg>
